<mxfile host="Electron" modified="2023-07-04T08:26:48.290Z" agent="Mozilla/5.0 (Windows NT 10.0; Win64; x64) AppleWebKit/537.36 (KHTML, like Gecko) draw.io/21.3.7 Chrome/112.0.5615.204 Electron/24.5.0 Safari/537.36" etag="MeiCy2o9y6MrAtcNQIQt" version="21.3.7" type="device" pages="6">
  <diagram name="Login" id="1vbJE63yehGYoHxm1l3T">
    <mxGraphModel dx="446" dy="563" grid="1" gridSize="10" guides="1" tooltips="1" connect="1" arrows="1" fold="1" page="1" pageScale="1" pageWidth="827" pageHeight="1169" math="0" shadow="0">
      <root>
        <mxCell id="0" />
        <mxCell id="1" parent="0" />
        <mxCell id="xx2T-5czuS8DPokve1gc-12" value="Login" style="swimlane;fontStyle=1;align=center;horizontal=1;startSize=30;collapsible=0;html=1;whiteSpace=wrap;" parent="1" vertex="1">
          <mxGeometry x="90" y="60" width="660" height="810" as="geometry" />
        </mxCell>
        <mxCell id="xx2T-5czuS8DPokve1gc-41" value="" style="ellipse;html=1;shape=endState;fillColor=#000000;strokeColor=#ff0000;" parent="xx2T-5czuS8DPokve1gc-12" vertex="1">
          <mxGeometry x="330" y="720" width="30" height="30" as="geometry" />
        </mxCell>
        <mxCell id="xx2T-5czuS8DPokve1gc-15" value="" style="ellipse;html=1;shape=startState;fillColor=#000000;strokeColor=#ff0000;" parent="xx2T-5czuS8DPokve1gc-12" vertex="1">
          <mxGeometry x="330" y="60" width="30" height="30" as="geometry" />
        </mxCell>
        <mxCell id="xx2T-5czuS8DPokve1gc-16" value="" style="edgeStyle=orthogonalEdgeStyle;html=1;verticalAlign=bottom;endArrow=open;endSize=8;strokeColor=#ff0000;rounded=0;" parent="xx2T-5czuS8DPokve1gc-12" source="xx2T-5czuS8DPokve1gc-15" edge="1">
          <mxGeometry relative="1" as="geometry">
            <mxPoint x="345" y="130" as="targetPoint" />
          </mxGeometry>
        </mxCell>
        <mxCell id="Tq90tNpV2QoHPwnpIfh4-12" style="edgeStyle=orthogonalEdgeStyle;rounded=0;orthogonalLoop=1;jettySize=auto;html=1;entryX=1;entryY=0.5;entryDx=0;entryDy=0;exitX=0;exitY=0.5;exitDx=0;exitDy=0;" parent="xx2T-5czuS8DPokve1gc-12" source="A6uxB5nuaFgSbEoeA9hx-1" target="Tq90tNpV2QoHPwnpIfh4-9" edge="1">
          <mxGeometry relative="1" as="geometry">
            <mxPoint x="310" y="305" as="sourcePoint" />
          </mxGeometry>
        </mxCell>
        <mxCell id="xx2T-5czuS8DPokve1gc-25" value="[invalid user name/password]" style="text;html=1;strokeColor=none;fillColor=none;align=center;verticalAlign=middle;whiteSpace=wrap;rounded=0;" parent="xx2T-5czuS8DPokve1gc-12" vertex="1">
          <mxGeometry x="210" y="270" width="90" height="30" as="geometry" />
        </mxCell>
        <mxCell id="xx2T-5czuS8DPokve1gc-31" value="[valid user name/password]" style="text;html=1;strokeColor=none;fillColor=none;align=center;verticalAlign=middle;whiteSpace=wrap;rounded=0;" parent="xx2T-5czuS8DPokve1gc-12" vertex="1">
          <mxGeometry x="250" y="350" width="90" height="30" as="geometry" />
        </mxCell>
        <mxCell id="Tq90tNpV2QoHPwnpIfh4-16" style="edgeStyle=orthogonalEdgeStyle;rounded=0;orthogonalLoop=1;jettySize=auto;html=1;entryX=0;entryY=0.5;entryDx=0;entryDy=0;exitX=1;exitY=0.5;exitDx=0;exitDy=0;" parent="xx2T-5czuS8DPokve1gc-12" source="A6uxB5nuaFgSbEoeA9hx-2" target="Tq90tNpV2QoHPwnpIfh4-13" edge="1">
          <mxGeometry relative="1" as="geometry">
            <mxPoint x="390" y="425" as="sourcePoint" />
          </mxGeometry>
        </mxCell>
        <mxCell id="xx2T-5czuS8DPokve1gc-33" style="edgeStyle=orthogonalEdgeStyle;rounded=0;orthogonalLoop=1;jettySize=auto;html=1;exitX=0.513;exitY=0.933;exitDx=0;exitDy=0;exitPerimeter=0;" parent="xx2T-5czuS8DPokve1gc-12" source="A6uxB5nuaFgSbEoeA9hx-1" edge="1">
          <mxGeometry relative="1" as="geometry">
            <mxPoint x="350" y="340" as="sourcePoint" />
            <mxPoint x="346" y="400" as="targetPoint" />
          </mxGeometry>
        </mxCell>
        <mxCell id="xx2T-5czuS8DPokve1gc-36" value="[not exist in db]" style="text;html=1;strokeColor=none;fillColor=none;align=center;verticalAlign=middle;whiteSpace=wrap;rounded=0;" parent="xx2T-5czuS8DPokve1gc-12" vertex="1">
          <mxGeometry x="380" y="390" width="90" height="30" as="geometry" />
        </mxCell>
        <mxCell id="xx2T-5czuS8DPokve1gc-40" style="edgeStyle=orthogonalEdgeStyle;rounded=0;orthogonalLoop=1;jettySize=auto;html=1;entryX=0.5;entryY=0;entryDx=0;entryDy=0;exitX=0.5;exitY=1;exitDx=0;exitDy=0;" parent="xx2T-5czuS8DPokve1gc-12" source="A6uxB5nuaFgSbEoeA9hx-2" edge="1">
          <mxGeometry relative="1" as="geometry">
            <mxPoint x="345" y="560" as="targetPoint" />
            <mxPoint x="345" y="470" as="sourcePoint" />
          </mxGeometry>
        </mxCell>
        <mxCell id="xx2T-5czuS8DPokve1gc-43" value="[exist in db]" style="text;html=1;strokeColor=none;fillColor=none;align=center;verticalAlign=middle;whiteSpace=wrap;rounded=0;" parent="xx2T-5czuS8DPokve1gc-12" vertex="1">
          <mxGeometry x="340" y="495" width="90" height="30" as="geometry" />
        </mxCell>
        <mxCell id="Tq90tNpV2QoHPwnpIfh4-17" style="edgeStyle=orthogonalEdgeStyle;rounded=0;orthogonalLoop=1;jettySize=auto;html=1;entryX=0.5;entryY=0;entryDx=0;entryDy=0;" parent="xx2T-5czuS8DPokve1gc-12" source="Tq90tNpV2QoHPwnpIfh4-1" target="Tq90tNpV2QoHPwnpIfh4-3" edge="1">
          <mxGeometry relative="1" as="geometry" />
        </mxCell>
        <mxCell id="Tq90tNpV2QoHPwnpIfh4-1" value="Show login screen" style="rounded=1;whiteSpace=wrap;html=1;arcSize=40;fontColor=#000000;fillColor=#ffffc0;strokeColor=#ff0000;" parent="xx2T-5czuS8DPokve1gc-12" vertex="1">
          <mxGeometry x="285" y="130" width="120" height="40" as="geometry" />
        </mxCell>
        <mxCell id="Tq90tNpV2QoHPwnpIfh4-18" style="edgeStyle=orthogonalEdgeStyle;rounded=0;orthogonalLoop=1;jettySize=auto;html=1;entryX=0.5;entryY=0;entryDx=0;entryDy=0;" parent="xx2T-5czuS8DPokve1gc-12" source="Tq90tNpV2QoHPwnpIfh4-3" edge="1">
          <mxGeometry relative="1" as="geometry">
            <mxPoint x="345" y="290" as="targetPoint" />
          </mxGeometry>
        </mxCell>
        <mxCell id="Tq90tNpV2QoHPwnpIfh4-3" value="Input Username Password" style="rounded=1;whiteSpace=wrap;html=1;arcSize=40;fontColor=#000000;fillColor=#ffffc0;strokeColor=#ff0000;" parent="xx2T-5czuS8DPokve1gc-12" vertex="1">
          <mxGeometry x="285" y="210" width="120" height="40" as="geometry" />
        </mxCell>
        <mxCell id="Tq90tNpV2QoHPwnpIfh4-11" style="edgeStyle=orthogonalEdgeStyle;rounded=0;orthogonalLoop=1;jettySize=auto;html=1;entryX=0;entryY=0.5;entryDx=0;entryDy=0;" parent="xx2T-5czuS8DPokve1gc-12" source="Tq90tNpV2QoHPwnpIfh4-9" target="Tq90tNpV2QoHPwnpIfh4-1" edge="1">
          <mxGeometry relative="1" as="geometry">
            <Array as="points">
              <mxPoint x="110" y="150" />
            </Array>
          </mxGeometry>
        </mxCell>
        <mxCell id="Tq90tNpV2QoHPwnpIfh4-9" value="Show message&lt;br&gt;&quot;invalid username or password" style="rounded=1;whiteSpace=wrap;html=1;arcSize=40;fontColor=#000000;fillColor=#ffffc0;strokeColor=#ff0000;" parent="xx2T-5czuS8DPokve1gc-12" vertex="1">
          <mxGeometry x="40" y="287.5" width="140" height="50" as="geometry" />
        </mxCell>
        <mxCell id="Tq90tNpV2QoHPwnpIfh4-15" style="edgeStyle=orthogonalEdgeStyle;rounded=0;orthogonalLoop=1;jettySize=auto;html=1;entryX=1;entryY=0.5;entryDx=0;entryDy=0;" parent="xx2T-5czuS8DPokve1gc-12" source="Tq90tNpV2QoHPwnpIfh4-13" target="Tq90tNpV2QoHPwnpIfh4-1" edge="1">
          <mxGeometry relative="1" as="geometry">
            <Array as="points">
              <mxPoint x="550" y="150" />
            </Array>
          </mxGeometry>
        </mxCell>
        <mxCell id="Tq90tNpV2QoHPwnpIfh4-13" value="Show message &quot;incorect Username or password&quot;" style="rounded=1;whiteSpace=wrap;html=1;arcSize=40;fontColor=#000000;fillColor=#ffffc0;strokeColor=#ff0000;" parent="xx2T-5czuS8DPokve1gc-12" vertex="1">
          <mxGeometry x="490" y="397.5" width="130" height="50" as="geometry" />
        </mxCell>
        <mxCell id="Tq90tNpV2QoHPwnpIfh4-21" style="rounded=0;orthogonalLoop=1;jettySize=auto;html=1;" parent="xx2T-5czuS8DPokve1gc-12" source="Tq90tNpV2QoHPwnpIfh4-19" target="xx2T-5czuS8DPokve1gc-41" edge="1">
          <mxGeometry relative="1" as="geometry" />
        </mxCell>
        <mxCell id="Tq90tNpV2QoHPwnpIfh4-19" value="Show main menu" style="rounded=1;whiteSpace=wrap;html=1;arcSize=40;fontColor=#000000;fillColor=#ffffc0;strokeColor=#ff0000;" parent="xx2T-5czuS8DPokve1gc-12" vertex="1">
          <mxGeometry x="285" y="560" width="120" height="40" as="geometry" />
        </mxCell>
        <mxCell id="A6uxB5nuaFgSbEoeA9hx-1" value="" style="rhombus;whiteSpace=wrap;html=1;fillColor=#ffffc0;strokeColor=#ff0000;fontColor=#000000;rounded=1;arcSize=40;" parent="xx2T-5czuS8DPokve1gc-12" vertex="1">
          <mxGeometry x="320" y="290" width="50" height="45" as="geometry" />
        </mxCell>
        <mxCell id="A6uxB5nuaFgSbEoeA9hx-2" value="" style="rhombus;whiteSpace=wrap;html=1;fillColor=#ffffc0;strokeColor=#ff0000;fontColor=#000000;rounded=1;arcSize=40;" parent="xx2T-5czuS8DPokve1gc-12" vertex="1">
          <mxGeometry x="320" y="400" width="50" height="45" as="geometry" />
        </mxCell>
      </root>
    </mxGraphModel>
  </diagram>
  <diagram id="i2Citk4jpFnQoq0FXfXn" name="Create order">
    <mxGraphModel dx="405" dy="512" grid="1" gridSize="10" guides="1" tooltips="1" connect="1" arrows="1" fold="1" page="1" pageScale="1" pageWidth="827" pageHeight="1169" math="0" shadow="0">
      <root>
        <mxCell id="0" />
        <mxCell id="1" parent="0" />
        <mxCell id="UzFmEctgfmxtKUJuYcKX-1" value="Create order" style="swimlane;fontStyle=1;align=center;horizontal=1;startSize=30;collapsible=0;html=1;whiteSpace=wrap;" parent="1" vertex="1">
          <mxGeometry x="40" y="60" width="719.3" height="1085" as="geometry" />
        </mxCell>
        <mxCell id="UzFmEctgfmxtKUJuYcKX-2" value="" style="ellipse;html=1;shape=endState;fillColor=#000000;strokeColor=#ff0000;" parent="UzFmEctgfmxtKUJuYcKX-1" vertex="1">
          <mxGeometry x="344.99999999999994" y="985" width="30" height="30" as="geometry" />
        </mxCell>
        <mxCell id="UzFmEctgfmxtKUJuYcKX-29" value="" style="ellipse;html=1;shape=startState;fillColor=#000000;strokeColor=#ff0000;" parent="UzFmEctgfmxtKUJuYcKX-1" vertex="1">
          <mxGeometry x="345" y="105" width="30" height="30" as="geometry" />
        </mxCell>
        <mxCell id="UzFmEctgfmxtKUJuYcKX-30" value="" style="html=1;verticalAlign=bottom;endArrow=open;strokeColor=#ff0000;rounded=0;exitX=0.5;exitY=1;exitDx=0;exitDy=0;entryX=0.5;entryY=0;entryDx=0;entryDy=0;" parent="UzFmEctgfmxtKUJuYcKX-1" source="UzFmEctgfmxtKUJuYcKX-29" target="BPSP6WWOrEaaylFwnW1f-1" edge="1">
          <mxGeometry relative="1" as="geometry">
            <mxPoint x="350" y="75" as="targetPoint" />
          </mxGeometry>
        </mxCell>
        <mxCell id="xz6QR7RBKlsEpR37oBEE-6" style="edgeStyle=orthogonalEdgeStyle;rounded=0;orthogonalLoop=1;jettySize=auto;html=1;entryX=0.5;entryY=0;entryDx=0;entryDy=0;" parent="UzFmEctgfmxtKUJuYcKX-1" source="BPSP6WWOrEaaylFwnW1f-1" target="QwXrnRHovA5yqLg_tPkK-16" edge="1">
          <mxGeometry relative="1" as="geometry">
            <mxPoint x="200.44000000000005" y="70.14999999999998" as="targetPoint" />
          </mxGeometry>
        </mxCell>
        <mxCell id="BPSP6WWOrEaaylFwnW1f-1" value="show menu and message &quot;choose product you want to add to order by id or select 0 to exit&quot;" style="rounded=1;whiteSpace=wrap;html=1;arcSize=40;fontColor=#000000;fillColor=#ffffc0;strokeColor=#ff0000;" parent="UzFmEctgfmxtKUJuYcKX-1" vertex="1">
          <mxGeometry x="277.63" y="207" width="164.75" height="60" as="geometry" />
        </mxCell>
        <mxCell id="vBLcjeEgqL8VVYnOaVak-5" style="edgeStyle=orthogonalEdgeStyle;rounded=0;orthogonalLoop=1;jettySize=auto;html=1;entryX=0.5;entryY=0;entryDx=0;entryDy=0;" parent="UzFmEctgfmxtKUJuYcKX-1" source="QwXrnRHovA5yqLg_tPkK-16" target="QwXrnRHovA5yqLg_tPkK-144" edge="1">
          <mxGeometry relative="1" as="geometry" />
        </mxCell>
        <mxCell id="QwXrnRHovA5yqLg_tPkK-16" value="add product to order" style="whiteSpace=wrap;html=1;fillColor=#ffffc0;strokeColor=#ff0000;fontColor=#000000;rounded=1;arcSize=40;" parent="UzFmEctgfmxtKUJuYcKX-1" vertex="1">
          <mxGeometry x="295.01" y="402" width="130" height="60" as="geometry" />
        </mxCell>
        <mxCell id="sH86fqkPMsfruOSz2V9x-2" style="edgeStyle=orthogonalEdgeStyle;rounded=0;orthogonalLoop=1;jettySize=auto;html=1;exitX=0.5;exitY=1;exitDx=0;exitDy=0;entryX=0.5;entryY=0;entryDx=0;entryDy=0;" parent="UzFmEctgfmxtKUJuYcKX-1" source="QwXrnRHovA5yqLg_tPkK-144" target="sH86fqkPMsfruOSz2V9x-1" edge="1">
          <mxGeometry relative="1" as="geometry" />
        </mxCell>
        <mxCell id="QwXrnRHovA5yqLg_tPkK-144" value="" style="rhombus;whiteSpace=wrap;html=1;fillColor=#ffffc0;strokeColor=#ff0000;fontColor=#000000;rounded=1;arcSize=40;" parent="UzFmEctgfmxtKUJuYcKX-1" vertex="1">
          <mxGeometry x="334.46999999999997" y="515" width="50.37" height="50" as="geometry" />
        </mxCell>
        <mxCell id="QwXrnRHovA5yqLg_tPkK-147" value="[continue add]" style="text;html=1;align=center;verticalAlign=middle;resizable=0;points=[];autosize=1;strokeColor=none;fillColor=none;" parent="UzFmEctgfmxtKUJuYcKX-1" vertex="1">
          <mxGeometry x="400" y="515" width="100" height="30" as="geometry" />
        </mxCell>
        <mxCell id="QwXrnRHovA5yqLg_tPkK-150" value="[not continue add]" style="text;html=1;align=center;verticalAlign=middle;resizable=0;points=[];autosize=1;strokeColor=none;fillColor=none;" parent="UzFmEctgfmxtKUJuYcKX-1" vertex="1">
          <mxGeometry x="360" y="575" width="120" height="30" as="geometry" />
        </mxCell>
        <mxCell id="7fXnzAOh_J7CrGwlfzY1-5" style="edgeStyle=orthogonalEdgeStyle;rounded=0;orthogonalLoop=1;jettySize=auto;html=1;entryX=0.5;entryY=0;entryDx=0;entryDy=0;" parent="UzFmEctgfmxtKUJuYcKX-1" source="QwXrnRHovA5yqLg_tPkK-342" target="QwXrnRHovA5yqLg_tPkK-496" edge="1">
          <mxGeometry relative="1" as="geometry" />
        </mxCell>
        <mxCell id="QwXrnRHovA5yqLg_tPkK-342" value="Create order" style="whiteSpace=wrap;html=1;fillColor=#ffffc0;strokeColor=#ff0000;fontColor=#000000;rounded=1;arcSize=40;" parent="UzFmEctgfmxtKUJuYcKX-1" vertex="1">
          <mxGeometry x="304.71" y="751" width="110.36" height="60" as="geometry" />
        </mxCell>
        <mxCell id="QwXrnRHovA5yqLg_tPkK-496" value="Show message &quot;create oder complete&quot;" style="whiteSpace=wrap;html=1;fillColor=#ffffc0;strokeColor=#ff0000;fontColor=#000000;rounded=1;arcSize=40;" parent="UzFmEctgfmxtKUJuYcKX-1" vertex="1">
          <mxGeometry x="304.65" y="875" width="110" height="50" as="geometry" />
        </mxCell>
        <mxCell id="QwXrnRHovA5yqLg_tPkK-498" value="" style="shape=line;html=1;strokeWidth=6;strokeColor=#ff0000;" parent="UzFmEctgfmxtKUJuYcKX-1" vertex="1">
          <mxGeometry x="40" y="950" width="640" height="10" as="geometry" />
        </mxCell>
        <mxCell id="QwXrnRHovA5yqLg_tPkK-499" value="" style="edgeStyle=orthogonalEdgeStyle;html=1;verticalAlign=bottom;endArrow=open;endSize=8;strokeColor=#ff0000;rounded=0;entryX=0.5;entryY=0;entryDx=0;entryDy=0;" parent="UzFmEctgfmxtKUJuYcKX-1" source="QwXrnRHovA5yqLg_tPkK-498" edge="1">
          <mxGeometry relative="1" as="geometry">
            <mxPoint x="360" y="985" as="targetPoint" />
          </mxGeometry>
        </mxCell>
        <mxCell id="QwXrnRHovA5yqLg_tPkK-146" style="edgeStyle=orthogonalEdgeStyle;rounded=0;orthogonalLoop=1;jettySize=auto;html=1;entryX=1;entryY=0.5;entryDx=0;entryDy=0;" parent="UzFmEctgfmxtKUJuYcKX-1" source="QwXrnRHovA5yqLg_tPkK-144" target="BPSP6WWOrEaaylFwnW1f-1" edge="1">
          <mxGeometry relative="1" as="geometry">
            <mxPoint x="695.7600000000002" y="42.38999999999987" as="targetPoint" />
            <Array as="points">
              <mxPoint x="520" y="540" />
              <mxPoint x="520" y="237" />
            </Array>
          </mxGeometry>
        </mxCell>
        <mxCell id="vBLcjeEgqL8VVYnOaVak-3" style="edgeStyle=orthogonalEdgeStyle;rounded=0;orthogonalLoop=1;jettySize=auto;html=1;entryX=0.5;entryY=0.588;entryDx=0;entryDy=0;entryPerimeter=0;" parent="UzFmEctgfmxtKUJuYcKX-1" source="QwXrnRHovA5yqLg_tPkK-496" target="QwXrnRHovA5yqLg_tPkK-498" edge="1">
          <mxGeometry relative="1" as="geometry" />
        </mxCell>
        <mxCell id="sH86fqkPMsfruOSz2V9x-3" style="edgeStyle=orthogonalEdgeStyle;rounded=0;orthogonalLoop=1;jettySize=auto;html=1;exitX=1;exitY=0.5;exitDx=0;exitDy=0;entryX=0.75;entryY=0.5;entryDx=0;entryDy=0;entryPerimeter=0;" parent="UzFmEctgfmxtKUJuYcKX-1" source="sH86fqkPMsfruOSz2V9x-1" target="QwXrnRHovA5yqLg_tPkK-498" edge="1">
          <mxGeometry relative="1" as="geometry" />
        </mxCell>
        <mxCell id="sH86fqkPMsfruOSz2V9x-4" style="edgeStyle=orthogonalEdgeStyle;rounded=0;orthogonalLoop=1;jettySize=auto;html=1;entryX=0.5;entryY=0;entryDx=0;entryDy=0;" parent="UzFmEctgfmxtKUJuYcKX-1" source="sH86fqkPMsfruOSz2V9x-1" target="QwXrnRHovA5yqLg_tPkK-342" edge="1">
          <mxGeometry relative="1" as="geometry" />
        </mxCell>
        <mxCell id="sH86fqkPMsfruOSz2V9x-1" value="" style="rhombus;whiteSpace=wrap;html=1;fillColor=#ffffc0;strokeColor=#ff0000;fontColor=#000000;rounded=1;arcSize=40;" parent="UzFmEctgfmxtKUJuYcKX-1" vertex="1">
          <mxGeometry x="334.46999999999997" y="625" width="50.37" height="50" as="geometry" />
        </mxCell>
        <mxCell id="sH86fqkPMsfruOSz2V9x-6" value="[cancel create]" style="text;html=1;align=center;verticalAlign=middle;resizable=0;points=[];autosize=1;strokeColor=none;fillColor=none;" parent="UzFmEctgfmxtKUJuYcKX-1" vertex="1">
          <mxGeometry x="400" y="625" width="100" height="30" as="geometry" />
        </mxCell>
        <mxCell id="sH86fqkPMsfruOSz2V9x-5" value="[continue create]" style="text;html=1;align=center;verticalAlign=middle;resizable=0;points=[];autosize=1;strokeColor=none;fillColor=none;" parent="1" vertex="1">
          <mxGeometry x="289" y="753" width="110" height="30" as="geometry" />
        </mxCell>
      </root>
    </mxGraphModel>
  </diagram>
  <diagram id="5ZLehnFkMrkNBJHYs2qf" name="Add product to order">
    <mxGraphModel dx="446" dy="563" grid="1" gridSize="10" guides="1" tooltips="1" connect="1" arrows="1" fold="1" page="1" pageScale="1" pageWidth="827" pageHeight="1169" math="0" shadow="0">
      <root>
        <mxCell id="0" />
        <mxCell id="1" parent="0" />
        <mxCell id="E5Wcd5zXQ4O-th9EG7XP-1" value="add product to order" style="swimlane;whiteSpace=wrap;html=1;" parent="1" vertex="1">
          <mxGeometry x="10" width="790" height="1130" as="geometry">
            <mxRectangle x="10" width="160" height="30" as="alternateBounds" />
          </mxGeometry>
        </mxCell>
        <mxCell id="E5Wcd5zXQ4O-th9EG7XP-2" value="" style="ellipse;html=1;shape=startState;fillColor=#000000;strokeColor=#ff0000;" parent="E5Wcd5zXQ4O-th9EG7XP-1" vertex="1">
          <mxGeometry x="178.37" y="70" width="30" height="30" as="geometry" />
        </mxCell>
        <mxCell id="E5Wcd5zXQ4O-th9EG7XP-3" value="" style="edgeStyle=orthogonalEdgeStyle;html=1;verticalAlign=bottom;endArrow=open;endSize=8;strokeColor=#ff0000;rounded=0;entryX=0.5;entryY=0;entryDx=0;entryDy=0;" parent="E5Wcd5zXQ4O-th9EG7XP-1" source="E5Wcd5zXQ4O-th9EG7XP-2" target="GIVadCBqb6BzwHjGzZeA-1" edge="1">
          <mxGeometry relative="1" as="geometry">
            <mxPoint x="193.37" y="160" as="targetPoint" />
          </mxGeometry>
        </mxCell>
        <mxCell id="Rl6O9RC2wnV-L45INkVR-2" style="edgeStyle=orthogonalEdgeStyle;rounded=0;orthogonalLoop=1;jettySize=auto;html=1;entryX=0.5;entryY=0;entryDx=0;entryDy=0;" parent="E5Wcd5zXQ4O-th9EG7XP-1" source="GIVadCBqb6BzwHjGzZeA-1" target="JmhD_MrjdrkGp4ALMB-n-1" edge="1">
          <mxGeometry relative="1" as="geometry">
            <mxPoint x="193.37" y="260" as="targetPoint" />
          </mxGeometry>
        </mxCell>
        <mxCell id="GIVadCBqb6BzwHjGzZeA-1" value="input choice" style="rounded=1;whiteSpace=wrap;html=1;arcSize=40;fontColor=#000000;fillColor=#ffffc0;strokeColor=#ff0000;" parent="E5Wcd5zXQ4O-th9EG7XP-1" vertex="1">
          <mxGeometry x="111" y="160" width="164.75" height="60" as="geometry" />
        </mxCell>
        <mxCell id="LfVyIc4pxJa4uE-iY_CX-2" style="edgeStyle=orthogonalEdgeStyle;rounded=0;orthogonalLoop=1;jettySize=auto;html=1;" parent="E5Wcd5zXQ4O-th9EG7XP-1" source="JmhD_MrjdrkGp4ALMB-n-1" target="LfVyIc4pxJa4uE-iY_CX-1" edge="1">
          <mxGeometry relative="1" as="geometry" />
        </mxCell>
        <mxCell id="fHeWWkUfbfeQO6m10kYZ-2" style="edgeStyle=orthogonalEdgeStyle;rounded=0;orthogonalLoop=1;jettySize=auto;html=1;entryX=0;entryY=0.5;entryDx=0;entryDy=0;" parent="E5Wcd5zXQ4O-th9EG7XP-1" source="JmhD_MrjdrkGp4ALMB-n-1" target="fHeWWkUfbfeQO6m10kYZ-1" edge="1">
          <mxGeometry relative="1" as="geometry" />
        </mxCell>
        <mxCell id="JmhD_MrjdrkGp4ALMB-n-1" value="" style="rhombus;whiteSpace=wrap;html=1;fillColor=#ffffc0;strokeColor=#ff0000;fontColor=#000000;rounded=1;arcSize=40;" parent="E5Wcd5zXQ4O-th9EG7XP-1" vertex="1">
          <mxGeometry x="168.37" y="260" width="50" height="50" as="geometry" />
        </mxCell>
        <mxCell id="YMl7tg9VkgQVcv_lH67m-2" style="edgeStyle=orthogonalEdgeStyle;rounded=0;orthogonalLoop=1;jettySize=auto;html=1;" parent="E5Wcd5zXQ4O-th9EG7XP-1" source="LfVyIc4pxJa4uE-iY_CX-1" target="YMl7tg9VkgQVcv_lH67m-1" edge="1">
          <mxGeometry relative="1" as="geometry" />
        </mxCell>
        <mxCell id="hTltKjYQlIolI9tYKCUb-2" style="edgeStyle=orthogonalEdgeStyle;rounded=0;orthogonalLoop=1;jettySize=auto;html=1;entryX=0;entryY=0.5;entryDx=0;entryDy=0;" parent="E5Wcd5zXQ4O-th9EG7XP-1" source="LfVyIc4pxJa4uE-iY_CX-1" target="Xz6zF0BrAyn8AletfYLZ-1" edge="1">
          <mxGeometry relative="1" as="geometry" />
        </mxCell>
        <mxCell id="LfVyIc4pxJa4uE-iY_CX-1" value="" style="rhombus;whiteSpace=wrap;html=1;fillColor=#ffffc0;strokeColor=#ff0000;fontColor=#000000;rounded=1;arcSize=40;" parent="E5Wcd5zXQ4O-th9EG7XP-1" vertex="1">
          <mxGeometry x="170.37" y="350" width="45" height="47.5" as="geometry" />
        </mxCell>
        <mxCell id="fHeWWkUfbfeQO6m10kYZ-1" value="show message&lt;br&gt;&quot;invalid choice, please re-enter&quot;" style="rounded=1;whiteSpace=wrap;html=1;arcSize=40;fontColor=#000000;fillColor=#ffffc0;strokeColor=#ff0000;" parent="E5Wcd5zXQ4O-th9EG7XP-1" vertex="1">
          <mxGeometry x="401" y="260" width="147" height="50" as="geometry" />
        </mxCell>
        <mxCell id="Xz6zF0BrAyn8AletfYLZ-1" value="show message&lt;br&gt;&quot;invalid choice, please re-enter&quot;" style="rounded=1;whiteSpace=wrap;html=1;arcSize=40;fontColor=#000000;fillColor=#ffffc0;strokeColor=#ff0000;" parent="E5Wcd5zXQ4O-th9EG7XP-1" vertex="1">
          <mxGeometry x="401" y="347.5" width="147" height="52.5" as="geometry" />
        </mxCell>
        <mxCell id="uCcuUjWubJv1PY0Gf5Rb-1" value="show message&lt;br&gt;&quot;product is sold out, please choose another product&quot;" style="rounded=1;whiteSpace=wrap;html=1;arcSize=40;fontColor=#000000;fillColor=#ffffc0;strokeColor=#ff0000;" parent="E5Wcd5zXQ4O-th9EG7XP-1" vertex="1">
          <mxGeometry x="401" y="450" width="162" height="58.75" as="geometry" />
        </mxCell>
        <mxCell id="YMl7tg9VkgQVcv_lH67m-3" style="edgeStyle=orthogonalEdgeStyle;rounded=0;orthogonalLoop=1;jettySize=auto;html=1;" parent="E5Wcd5zXQ4O-th9EG7XP-1" source="YMl7tg9VkgQVcv_lH67m-1" target="uCcuUjWubJv1PY0Gf5Rb-1" edge="1">
          <mxGeometry relative="1" as="geometry" />
        </mxCell>
        <mxCell id="uR5T_4MHwr5RzN879sYs-2" style="edgeStyle=orthogonalEdgeStyle;rounded=0;orthogonalLoop=1;jettySize=auto;html=1;entryX=0.5;entryY=0;entryDx=0;entryDy=0;" parent="E5Wcd5zXQ4O-th9EG7XP-1" source="YMl7tg9VkgQVcv_lH67m-1" target="uR5T_4MHwr5RzN879sYs-1" edge="1">
          <mxGeometry relative="1" as="geometry" />
        </mxCell>
        <mxCell id="YMl7tg9VkgQVcv_lH67m-1" value="" style="rhombus;whiteSpace=wrap;html=1;fillColor=#ffffc0;strokeColor=#ff0000;fontColor=#000000;rounded=1;arcSize=40;" parent="E5Wcd5zXQ4O-th9EG7XP-1" vertex="1">
          <mxGeometry x="170.37" y="455.62" width="45" height="47.5" as="geometry" />
        </mxCell>
        <mxCell id="MHltSxfsPW1uRlbJgPws-3" style="edgeStyle=orthogonalEdgeStyle;rounded=0;orthogonalLoop=1;jettySize=auto;html=1;entryX=0.485;entryY=0.09;entryDx=0;entryDy=0;entryPerimeter=0;" parent="E5Wcd5zXQ4O-th9EG7XP-1" source="uR5T_4MHwr5RzN879sYs-1" target="MHltSxfsPW1uRlbJgPws-1" edge="1">
          <mxGeometry relative="1" as="geometry" />
        </mxCell>
        <mxCell id="uR5T_4MHwr5RzN879sYs-1" value="input quantity" style="rounded=1;whiteSpace=wrap;html=1;arcSize=40;fontColor=#000000;fillColor=#ffffc0;strokeColor=#ff0000;" parent="E5Wcd5zXQ4O-th9EG7XP-1" vertex="1">
          <mxGeometry x="128.37" y="575" width="130" height="30" as="geometry" />
        </mxCell>
        <mxCell id="MHltSxfsPW1uRlbJgPws-5" style="edgeStyle=orthogonalEdgeStyle;rounded=0;orthogonalLoop=1;jettySize=auto;html=1;entryX=0.465;entryY=0.127;entryDx=0;entryDy=0;entryPerimeter=0;" parent="E5Wcd5zXQ4O-th9EG7XP-1" source="MHltSxfsPW1uRlbJgPws-1" target="MHltSxfsPW1uRlbJgPws-2" edge="1">
          <mxGeometry relative="1" as="geometry" />
        </mxCell>
        <mxCell id="pvJx_Yairj7sXvkyJ6BH-2" style="edgeStyle=orthogonalEdgeStyle;rounded=0;orthogonalLoop=1;jettySize=auto;html=1;entryX=0;entryY=0.5;entryDx=0;entryDy=0;" parent="E5Wcd5zXQ4O-th9EG7XP-1" source="MHltSxfsPW1uRlbJgPws-1" target="pvJx_Yairj7sXvkyJ6BH-1" edge="1">
          <mxGeometry relative="1" as="geometry" />
        </mxCell>
        <mxCell id="MHltSxfsPW1uRlbJgPws-1" value="" style="rhombus;whiteSpace=wrap;html=1;fillColor=#ffffc0;strokeColor=#ff0000;fontColor=#000000;rounded=1;arcSize=40;" parent="E5Wcd5zXQ4O-th9EG7XP-1" vertex="1">
          <mxGeometry x="169.37" y="650" width="50" height="50" as="geometry" />
        </mxCell>
        <mxCell id="pTNWhqJbmkRLfz31N6FS-2" style="edgeStyle=orthogonalEdgeStyle;rounded=0;orthogonalLoop=1;jettySize=auto;html=1;" parent="E5Wcd5zXQ4O-th9EG7XP-1" source="MHltSxfsPW1uRlbJgPws-2" target="pTNWhqJbmkRLfz31N6FS-1" edge="1">
          <mxGeometry relative="1" as="geometry" />
        </mxCell>
        <mxCell id="JzflCo3CL6qBdSp4Kdt5-1" style="edgeStyle=orthogonalEdgeStyle;rounded=0;orthogonalLoop=1;jettySize=auto;html=1;entryX=0.5;entryY=0;entryDx=0;entryDy=0;" parent="E5Wcd5zXQ4O-th9EG7XP-1" source="MHltSxfsPW1uRlbJgPws-2" target="57mSedsUxo4mAQMyZzA2-1" edge="1">
          <mxGeometry relative="1" as="geometry" />
        </mxCell>
        <mxCell id="MHltSxfsPW1uRlbJgPws-2" value="" style="rhombus;whiteSpace=wrap;html=1;fillColor=#ffffc0;strokeColor=#ff0000;fontColor=#000000;rounded=1;arcSize=40;" parent="E5Wcd5zXQ4O-th9EG7XP-1" vertex="1">
          <mxGeometry x="170.37" y="740" width="50" height="50" as="geometry" />
        </mxCell>
        <mxCell id="IS7-5e9lDBNW5WhkPKP0-1" style="edgeStyle=orthogonalEdgeStyle;rounded=0;orthogonalLoop=1;jettySize=auto;html=1;entryX=0.75;entryY=0.5;entryDx=0;entryDy=0;entryPerimeter=0;" parent="E5Wcd5zXQ4O-th9EG7XP-1" source="pvJx_Yairj7sXvkyJ6BH-1" target="QOehB48_83WxDMOc_RaN-2" edge="1">
          <mxGeometry relative="1" as="geometry">
            <Array as="points">
              <mxPoint x="461" y="606" />
            </Array>
          </mxGeometry>
        </mxCell>
        <mxCell id="pvJx_Yairj7sXvkyJ6BH-1" value="show message&lt;br&gt;&quot;invalid quantity&quot;" style="whiteSpace=wrap;html=1;fillColor=#ffffc0;strokeColor=#ff0000;fontColor=#000000;rounded=1;arcSize=40;" parent="E5Wcd5zXQ4O-th9EG7XP-1" vertex="1">
          <mxGeometry x="411" y="645" width="120" height="60" as="geometry" />
        </mxCell>
        <mxCell id="i8yGKumZK71ni4hVpdKz-1" style="edgeStyle=orthogonalEdgeStyle;rounded=0;orthogonalLoop=1;jettySize=auto;html=1;entryX=0;entryY=0.5;entryDx=0;entryDy=0;" parent="E5Wcd5zXQ4O-th9EG7XP-1" source="pTNWhqJbmkRLfz31N6FS-1" target="gElGTSafXs0u9xFabLCt-1" edge="1">
          <mxGeometry relative="1" as="geometry" />
        </mxCell>
        <mxCell id="pTNWhqJbmkRLfz31N6FS-1" value="show message&lt;br&gt;&quot;The current quantity is not enough, please re-enter or change the product&lt;span style=&quot;background-color: initial;&quot;&gt;&quot;&lt;/span&gt;" style="whiteSpace=wrap;html=1;fillColor=#ffffc0;strokeColor=#ff0000;fontColor=#000000;rounded=1;arcSize=40;" parent="E5Wcd5zXQ4O-th9EG7XP-1" vertex="1">
          <mxGeometry x="401" y="730" width="140" height="70" as="geometry" />
        </mxCell>
        <mxCell id="7dXT79TCJaHqaxzgBNRR-45" style="edgeStyle=orthogonalEdgeStyle;rounded=0;orthogonalLoop=1;jettySize=auto;html=1;exitX=0.5;exitY=1;exitDx=0;exitDy=0;entryX=0.194;entryY=0.4;entryDx=0;entryDy=0;entryPerimeter=0;" parent="E5Wcd5zXQ4O-th9EG7XP-1" source="57mSedsUxo4mAQMyZzA2-1" target="6CPyoI4VRlALvuiAO6jn-1" edge="1">
          <mxGeometry relative="1" as="geometry">
            <mxPoint x="353.49" y="930" as="targetPoint" />
          </mxGeometry>
        </mxCell>
        <mxCell id="57mSedsUxo4mAQMyZzA2-1" value="add product to order" style="whiteSpace=wrap;html=1;fillColor=#ffffc0;strokeColor=#ff0000;fontColor=#000000;rounded=1;arcSize=40;" parent="E5Wcd5zXQ4O-th9EG7XP-1" vertex="1">
          <mxGeometry x="130.37" y="900" width="130" height="60" as="geometry" />
        </mxCell>
        <mxCell id="2T8sB9O3G9NZYzLMOTpI-1" style="edgeStyle=orthogonalEdgeStyle;rounded=0;orthogonalLoop=1;jettySize=auto;html=1;entryX=0.25;entryY=0.5;entryDx=0;entryDy=0;entryPerimeter=0;" parent="E5Wcd5zXQ4O-th9EG7XP-1" source="gElGTSafXs0u9xFabLCt-1" target="MjRGrxT3qWXPT9LEapxU-1" edge="1">
          <mxGeometry relative="1" as="geometry">
            <Array as="points">
              <mxPoint x="738" y="765" />
            </Array>
          </mxGeometry>
        </mxCell>
        <mxCell id="2T8sB9O3G9NZYzLMOTpI-2" style="edgeStyle=orthogonalEdgeStyle;rounded=0;orthogonalLoop=1;jettySize=auto;html=1;entryX=0.25;entryY=0.5;entryDx=0;entryDy=0;entryPerimeter=0;" parent="E5Wcd5zXQ4O-th9EG7XP-1" source="gElGTSafXs0u9xFabLCt-1" target="QOehB48_83WxDMOc_RaN-2" edge="1">
          <mxGeometry relative="1" as="geometry">
            <Array as="points">
              <mxPoint x="615" y="574" />
            </Array>
          </mxGeometry>
        </mxCell>
        <mxCell id="gElGTSafXs0u9xFabLCt-1" value="" style="rhombus;whiteSpace=wrap;html=1;fillColor=#ffffc0;strokeColor=#ff0000;fontColor=#000000;rounded=1;arcSize=40;" parent="E5Wcd5zXQ4O-th9EG7XP-1" vertex="1">
          <mxGeometry x="589.63" y="740" width="50.37" height="50" as="geometry" />
        </mxCell>
        <mxCell id="QOehB48_83WxDMOc_RaN-2" value="" style="shape=line;html=1;strokeWidth=6;strokeColor=#ff0000;direction=south;" parent="E5Wcd5zXQ4O-th9EG7XP-1" vertex="1">
          <mxGeometry x="371" y="557.5" width="10" height="65" as="geometry" />
        </mxCell>
        <mxCell id="QOehB48_83WxDMOc_RaN-3" value="" style="edgeStyle=orthogonalEdgeStyle;html=1;verticalAlign=bottom;endArrow=open;endSize=8;strokeColor=#ff0000;rounded=0;entryX=1;entryY=0.5;entryDx=0;entryDy=0;" parent="E5Wcd5zXQ4O-th9EG7XP-1" source="QOehB48_83WxDMOc_RaN-2" target="uR5T_4MHwr5RzN879sYs-1" edge="1">
          <mxGeometry relative="1" as="geometry">
            <mxPoint x="271" y="670" as="targetPoint" />
            <Array as="points">
              <mxPoint x="341" y="590" />
              <mxPoint x="341" y="590" />
            </Array>
          </mxGeometry>
        </mxCell>
        <mxCell id="1dmAam-sCk6EpvvGEJMV-1" value="[invalid choice &lt;br&gt;EX1 UC_AddProduct]" style="text;html=1;strokeColor=none;fillColor=none;align=center;verticalAlign=middle;whiteSpace=wrap;rounded=0;" parent="E5Wcd5zXQ4O-th9EG7XP-1" vertex="1">
          <mxGeometry x="231" y="250" width="158.13" height="30" as="geometry" />
        </mxCell>
        <mxCell id="dHrjM15F754kDEf7VYe--1" value="[valid id]" style="text;html=1;align=center;verticalAlign=middle;resizable=0;points=[];autosize=1;strokeColor=none;fillColor=none;" parent="E5Wcd5zXQ4O-th9EG7XP-1" vertex="1">
          <mxGeometry x="128.37" y="317.5" width="70" height="30" as="geometry" />
        </mxCell>
        <mxCell id="hTltKjYQlIolI9tYKCUb-1" value="[id is not exit ]" style="text;html=1;strokeColor=none;fillColor=none;align=center;verticalAlign=middle;whiteSpace=wrap;rounded=0;" parent="E5Wcd5zXQ4O-th9EG7XP-1" vertex="1">
          <mxGeometry x="258.37" y="347.5" width="80.25" height="30" as="geometry" />
        </mxCell>
        <mxCell id="kr4K-DcZ0gQN9zh91r26-1" value="[out of stock]" style="text;html=1;align=center;verticalAlign=middle;resizable=0;points=[];autosize=1;strokeColor=none;fillColor=none;" parent="E5Wcd5zXQ4O-th9EG7XP-1" vertex="1">
          <mxGeometry x="248.62" y="455.62" width="90" height="30" as="geometry" />
        </mxCell>
        <mxCell id="_wJpT6waKeQTT1p26xC1-1" value="[in stock]" style="text;html=1;align=center;verticalAlign=middle;resizable=0;points=[];autosize=1;strokeColor=none;fillColor=none;" parent="E5Wcd5zXQ4O-th9EG7XP-1" vertex="1">
          <mxGeometry x="128.37" y="520" width="70" height="30" as="geometry" />
        </mxCell>
        <mxCell id="vTl1HM-Wl9M12aQysUwz-1" value="[invalid quantity]" style="text;html=1;align=center;verticalAlign=middle;resizable=0;points=[];autosize=1;strokeColor=none;fillColor=none;" parent="E5Wcd5zXQ4O-th9EG7XP-1" vertex="1">
          <mxGeometry x="243.49" y="650" width="110" height="30" as="geometry" />
        </mxCell>
        <mxCell id="GgiH_MIKiJpHQQvPT_bQ-1" value="[valid quantity]" style="text;html=1;align=center;verticalAlign=middle;resizable=0;points=[];autosize=1;strokeColor=none;fillColor=none;" parent="E5Wcd5zXQ4O-th9EG7XP-1" vertex="1">
          <mxGeometry x="98.37" y="705" width="100" height="30" as="geometry" />
        </mxCell>
        <mxCell id="Wrbdb_ztVrz-FIR801w8-1" value="[Not enough stock]" style="text;html=1;align=center;verticalAlign=middle;resizable=0;points=[];autosize=1;strokeColor=none;fillColor=none;" parent="E5Wcd5zXQ4O-th9EG7XP-1" vertex="1">
          <mxGeometry x="238.49" y="740" width="120" height="30" as="geometry" />
        </mxCell>
        <mxCell id="oe-TL7toumJ6eWOe2Uf_-1" value="[enough stock]" style="text;html=1;align=center;verticalAlign=middle;resizable=0;points=[];autosize=1;strokeColor=none;fillColor=none;" parent="E5Wcd5zXQ4O-th9EG7XP-1" vertex="1">
          <mxGeometry x="98.37" y="830" width="100" height="30" as="geometry" />
        </mxCell>
        <mxCell id="0wqusliFLc9gXS78y1Ma-1" value="" style="ellipse;html=1;shape=endState;fillColor=#000000;strokeColor=#ff0000;" parent="E5Wcd5zXQ4O-th9EG7XP-1" vertex="1">
          <mxGeometry x="275.74999999999994" y="1090" width="30" height="30" as="geometry" />
        </mxCell>
        <mxCell id="6CPyoI4VRlALvuiAO6jn-1" value="" style="shape=line;html=1;strokeWidth=6;strokeColor=#ff0000;" parent="E5Wcd5zXQ4O-th9EG7XP-1" vertex="1">
          <mxGeometry x="61" y="1030" width="689" height="10" as="geometry" />
        </mxCell>
        <mxCell id="6CPyoI4VRlALvuiAO6jn-2" value="" style="edgeStyle=orthogonalEdgeStyle;html=1;verticalAlign=bottom;endArrow=open;endSize=8;strokeColor=#ff0000;rounded=0;entryX=0.5;entryY=0;entryDx=0;entryDy=0;" parent="E5Wcd5zXQ4O-th9EG7XP-1" source="6CPyoI4VRlALvuiAO6jn-1" target="0wqusliFLc9gXS78y1Ma-1" edge="1">
          <mxGeometry relative="1" as="geometry">
            <mxPoint x="291" y="1090" as="targetPoint" />
            <Array as="points">
              <mxPoint x="291" y="1070" />
            </Array>
          </mxGeometry>
        </mxCell>
        <mxCell id="xFpQvKUdzgmPFGhX9NzG-1" value="[choose 0]" style="text;html=1;align=center;verticalAlign=middle;resizable=0;points=[];autosize=1;strokeColor=none;fillColor=none;" parent="E5Wcd5zXQ4O-th9EG7XP-1" vertex="1">
          <mxGeometry x="88.37" y="260" width="80" height="30" as="geometry" />
        </mxCell>
        <mxCell id="MjRGrxT3qWXPT9LEapxU-1" value="" style="shape=line;html=1;strokeWidth=6;strokeColor=#ff0000;rotation=-180;" parent="E5Wcd5zXQ4O-th9EG7XP-1" vertex="1">
          <mxGeometry x="640" y="230" width="130" height="10" as="geometry" />
        </mxCell>
        <mxCell id="W3NqtnUbDoth7iqwBbI5-2" style="edgeStyle=orthogonalEdgeStyle;rounded=0;orthogonalLoop=1;jettySize=auto;html=1;entryX=0.75;entryY=0.5;entryDx=0;entryDy=0;entryPerimeter=0;" parent="E5Wcd5zXQ4O-th9EG7XP-1" source="Xz6zF0BrAyn8AletfYLZ-1" target="MjRGrxT3qWXPT9LEapxU-1" edge="1">
          <mxGeometry relative="1" as="geometry">
            <mxPoint x="673" y="240" as="targetPoint" />
          </mxGeometry>
        </mxCell>
        <mxCell id="kr4K-DcZ0gQN9zh91r26-2" style="edgeStyle=orthogonalEdgeStyle;rounded=0;orthogonalLoop=1;jettySize=auto;html=1;entryX=0.454;entryY=0.3;entryDx=0;entryDy=0;entryPerimeter=0;" parent="E5Wcd5zXQ4O-th9EG7XP-1" source="uCcuUjWubJv1PY0Gf5Rb-1" target="MjRGrxT3qWXPT9LEapxU-1" edge="1">
          <mxGeometry relative="1" as="geometry">
            <mxPoint x="738" y="165" as="targetPoint" />
          </mxGeometry>
        </mxCell>
        <mxCell id="5T_s7dYNwnbX_dhBrxw0-2" value="" style="edgeStyle=orthogonalEdgeStyle;html=1;verticalAlign=bottom;endArrow=open;endSize=8;strokeColor=#ff0000;rounded=0;exitX=0.403;exitY=0.6;exitDx=0;exitDy=0;exitPerimeter=0;entryX=1;entryY=0.5;entryDx=0;entryDy=0;" parent="E5Wcd5zXQ4O-th9EG7XP-1" source="MjRGrxT3qWXPT9LEapxU-1" target="GIVadCBqb6BzwHjGzZeA-1" edge="1">
          <mxGeometry relative="1" as="geometry">
            <mxPoint x="350" y="180" as="targetPoint" />
            <mxPoint x="710" y="150" as="sourcePoint" />
            <Array as="points">
              <mxPoint x="718" y="190" />
            </Array>
          </mxGeometry>
        </mxCell>
        <mxCell id="M7dG6mKQILpq3h-KQBjF-1" value="[id is exit ]" style="text;html=1;strokeColor=none;fillColor=none;align=center;verticalAlign=middle;whiteSpace=wrap;rounded=0;" parent="E5Wcd5zXQ4O-th9EG7XP-1" vertex="1">
          <mxGeometry x="120" y="410" width="70" height="30" as="geometry" />
        </mxCell>
        <mxCell id="Xna7FFeAqTiYsC_gQQ-Q-1" value="[change product]" style="text;html=1;align=center;verticalAlign=middle;resizable=0;points=[];autosize=1;strokeColor=none;fillColor=none;" parent="E5Wcd5zXQ4O-th9EG7XP-1" vertex="1">
          <mxGeometry x="630" y="740" width="110" height="30" as="geometry" />
        </mxCell>
        <mxCell id="-BV9es8j85emn8YR2YFW-1" value="[re-enter]" style="text;html=1;align=center;verticalAlign=middle;resizable=0;points=[];autosize=1;strokeColor=none;fillColor=none;" parent="E5Wcd5zXQ4O-th9EG7XP-1" vertex="1">
          <mxGeometry x="519.63" y="550" width="70" height="30" as="geometry" />
        </mxCell>
        <mxCell id="Xs53ZW3u6axe7yo4VAp1-1" style="edgeStyle=orthogonalEdgeStyle;rounded=0;orthogonalLoop=1;jettySize=auto;html=1;entryX=0.039;entryY=0.467;entryDx=0;entryDy=0;entryPerimeter=0;" parent="E5Wcd5zXQ4O-th9EG7XP-1" source="JmhD_MrjdrkGp4ALMB-n-1" target="6CPyoI4VRlALvuiAO6jn-1" edge="1">
          <mxGeometry relative="1" as="geometry">
            <Array as="points">
              <mxPoint x="88" y="285" />
            </Array>
          </mxGeometry>
        </mxCell>
        <mxCell id="qliq-FKUNOOidD2SaIPR-1" style="edgeStyle=orthogonalEdgeStyle;rounded=0;orthogonalLoop=1;jettySize=auto;html=1;entryX=0.954;entryY=0.6;entryDx=0;entryDy=0;entryPerimeter=0;" parent="E5Wcd5zXQ4O-th9EG7XP-1" source="fHeWWkUfbfeQO6m10kYZ-1" target="MjRGrxT3qWXPT9LEapxU-1" edge="1">
          <mxGeometry relative="1" as="geometry" />
        </mxCell>
      </root>
    </mxGraphModel>
  </diagram>
  <diagram id="XEw1NWZi7ZNhD_lYviqP" name="Update order">
    <mxGraphModel dx="446" dy="563" grid="1" gridSize="10" guides="1" tooltips="1" connect="1" arrows="1" fold="1" page="1" pageScale="1" pageWidth="850" pageHeight="1100" math="0" shadow="0">
      <root>
        <mxCell id="0" />
        <mxCell id="1" parent="0" />
        <mxCell id="fXXnFVERwvrqLtGDAkOH-1" value="Update order" style="swimlane;fontStyle=1;align=center;horizontal=1;startSize=30;collapsible=0;html=1;whiteSpace=wrap;" parent="1" vertex="1">
          <mxGeometry x="8" y="20" width="833.5" height="1055" as="geometry" />
        </mxCell>
        <mxCell id="fXXnFVERwvrqLtGDAkOH-87" value="" style="ellipse;html=1;shape=startState;fillColor=#000000;strokeColor=#ff0000;" parent="fXXnFVERwvrqLtGDAkOH-1" vertex="1">
          <mxGeometry x="12" y="52.5" width="30" height="30" as="geometry" />
        </mxCell>
        <mxCell id="fXXnFVERwvrqLtGDAkOH-88" value="" style="edgeStyle=orthogonalEdgeStyle;html=1;verticalAlign=bottom;endArrow=open;endSize=8;strokeColor=#ff0000;rounded=0;entryX=0;entryY=0.5;entryDx=0;entryDy=0;" parent="fXXnFVERwvrqLtGDAkOH-1" source="fXXnFVERwvrqLtGDAkOH-87" target="fXXnFVERwvrqLtGDAkOH-89" edge="1">
          <mxGeometry relative="1" as="geometry">
            <mxPoint x="390" y="105" as="targetPoint" />
          </mxGeometry>
        </mxCell>
        <mxCell id="PGA8JIcSV6rcLDZMiu3c-3" style="edgeStyle=orthogonalEdgeStyle;rounded=0;orthogonalLoop=1;jettySize=auto;html=1;entryX=0;entryY=0.5;entryDx=0;entryDy=0;" parent="fXXnFVERwvrqLtGDAkOH-1" source="fXXnFVERwvrqLtGDAkOH-89" target="UrNJfkMPi4ZKKnzb5Xy2-26" edge="1">
          <mxGeometry relative="1" as="geometry" />
        </mxCell>
        <mxCell id="fXXnFVERwvrqLtGDAkOH-89" value="Display list order unconfirm and Show messgae &quot;choose order you want to view details on list by number or 0 to back main menu" style="rounded=1;whiteSpace=wrap;html=1;arcSize=40;fontColor=#000000;fillColor=#ffffc0;strokeColor=#ff0000;" parent="fXXnFVERwvrqLtGDAkOH-1" vertex="1">
          <mxGeometry x="77" y="35" width="190" height="65" as="geometry" />
        </mxCell>
        <mxCell id="qN6TfCDTq3izi5uldO_d-32" style="edgeStyle=orthogonalEdgeStyle;rounded=0;orthogonalLoop=1;jettySize=auto;html=1;entryX=0.99;entryY=0.3;entryDx=0;entryDy=0;entryPerimeter=0;exitX=0.9;exitY=0.507;exitDx=0;exitDy=0;exitPerimeter=0;" parent="fXXnFVERwvrqLtGDAkOH-1" source="fXXnFVERwvrqLtGDAkOH-91" target="UrNJfkMPi4ZKKnzb5Xy2-232" edge="1">
          <mxGeometry relative="1" as="geometry">
            <Array as="points">
              <mxPoint x="812" y="171" />
            </Array>
          </mxGeometry>
        </mxCell>
        <mxCell id="sHMYPvp7Yg1w1XAeYFRw-3" style="edgeStyle=orthogonalEdgeStyle;rounded=0;orthogonalLoop=1;jettySize=auto;html=1;exitX=0;exitY=0.5;exitDx=0;exitDy=0;entryX=1;entryY=0.5;entryDx=0;entryDy=0;" parent="fXXnFVERwvrqLtGDAkOH-1" source="fXXnFVERwvrqLtGDAkOH-91" target="PGA8JIcSV6rcLDZMiu3c-18" edge="1">
          <mxGeometry relative="1" as="geometry" />
        </mxCell>
        <mxCell id="fXXnFVERwvrqLtGDAkOH-91" value="" style="rhombus;whiteSpace=wrap;html=1;fillColor=#ffffc0;strokeColor=#ff0000;fontColor=#000000;rounded=1;arcSize=40;" parent="fXXnFVERwvrqLtGDAkOH-1" vertex="1">
          <mxGeometry x="746" y="148" width="50" height="45" as="geometry" />
        </mxCell>
        <mxCell id="UrNJfkMPi4ZKKnzb5Xy2-1" value="[0]" style="text;html=1;align=center;verticalAlign=middle;resizable=0;points=[];autosize=1;strokeColor=none;fillColor=none;" parent="fXXnFVERwvrqLtGDAkOH-1" vertex="1">
          <mxGeometry x="780" y="354" width="40" height="30" as="geometry" />
        </mxCell>
        <mxCell id="UrNJfkMPi4ZKKnzb5Xy2-6" value="[choose order on list]" style="text;html=1;align=center;verticalAlign=middle;resizable=0;points=[];autosize=1;strokeColor=none;fillColor=none;" parent="fXXnFVERwvrqLtGDAkOH-1" vertex="1">
          <mxGeometry x="614.51" y="140" width="130" height="30" as="geometry" />
        </mxCell>
        <mxCell id="PGA8JIcSV6rcLDZMiu3c-5" style="edgeStyle=orthogonalEdgeStyle;rounded=0;orthogonalLoop=1;jettySize=auto;html=1;entryX=0;entryY=0.5;entryDx=0;entryDy=0;" parent="fXXnFVERwvrqLtGDAkOH-1" source="UrNJfkMPi4ZKKnzb5Xy2-26" target="UrNJfkMPi4ZKKnzb5Xy2-30" edge="1">
          <mxGeometry relative="1" as="geometry" />
        </mxCell>
        <mxCell id="UrNJfkMPi4ZKKnzb5Xy2-26" value="input choice" style="whiteSpace=wrap;html=1;fillColor=#ffffc0;strokeColor=#ff0000;fontColor=#000000;rounded=1;arcSize=40;" parent="fXXnFVERwvrqLtGDAkOH-1" vertex="1">
          <mxGeometry x="407" y="55" width="120" height="25" as="geometry" />
        </mxCell>
        <mxCell id="PGA8JIcSV6rcLDZMiu3c-11" value="" style="edgeStyle=orthogonalEdgeStyle;rounded=0;orthogonalLoop=1;jettySize=auto;html=1;entryX=0.5;entryY=0;entryDx=0;entryDy=0;" parent="fXXnFVERwvrqLtGDAkOH-1" source="UrNJfkMPi4ZKKnzb5Xy2-30" target="fXXnFVERwvrqLtGDAkOH-91" edge="1">
          <mxGeometry relative="1" as="geometry">
            <mxPoint x="753.5" y="67.5" as="targetPoint" />
          </mxGeometry>
        </mxCell>
        <mxCell id="UrNJfkMPi4ZKKnzb5Xy2-30" value="" style="rhombus;whiteSpace=wrap;html=1;fillColor=#ffffc0;strokeColor=#ff0000;fontColor=#000000;rounded=1;arcSize=40;" parent="fXXnFVERwvrqLtGDAkOH-1" vertex="1">
          <mxGeometry x="638.5" y="45" width="50" height="45" as="geometry" />
        </mxCell>
        <mxCell id="UrNJfkMPi4ZKKnzb5Xy2-71" value="[valid choice]" style="text;html=1;align=center;verticalAlign=middle;resizable=0;points=[];autosize=1;strokeColor=none;fillColor=none;" parent="fXXnFVERwvrqLtGDAkOH-1" vertex="1">
          <mxGeometry x="682" y="45" width="90" height="30" as="geometry" />
        </mxCell>
        <mxCell id="PGA8JIcSV6rcLDZMiu3c-8" value="[invalid choice]" style="text;html=1;strokeColor=none;fillColor=none;align=center;verticalAlign=middle;whiteSpace=wrap;rounded=0;" parent="fXXnFVERwvrqLtGDAkOH-1" vertex="1">
          <mxGeometry x="516" y="83" width="110" height="30" as="geometry" />
        </mxCell>
        <mxCell id="cAktBOgCvSt8PIggFjyx-2" style="edgeStyle=orthogonalEdgeStyle;rounded=0;orthogonalLoop=1;jettySize=auto;html=1;exitX=0.5;exitY=1;exitDx=0;exitDy=0;entryX=0.5;entryY=0;entryDx=0;entryDy=0;" parent="fXXnFVERwvrqLtGDAkOH-1" source="PGA8JIcSV6rcLDZMiu3c-18" target="PGA8JIcSV6rcLDZMiu3c-29" edge="1">
          <mxGeometry relative="1" as="geometry" />
        </mxCell>
        <mxCell id="PGA8JIcSV6rcLDZMiu3c-18" value="Show order details and message &quot;&lt;br&gt;1.Add product to this order&amp;nbsp; 2.Update product information 3.Confirm or remove product&amp;nbsp; 0.Back to main menu" style="rounded=1;whiteSpace=wrap;html=1;arcSize=40;fontColor=#000000;fillColor=#ffffc0;strokeColor=#ff0000;" parent="fXXnFVERwvrqLtGDAkOH-1" vertex="1">
          <mxGeometry x="247.24" y="140" width="282" height="60" as="geometry" />
        </mxCell>
        <mxCell id="cAktBOgCvSt8PIggFjyx-3" style="edgeStyle=orthogonalEdgeStyle;rounded=0;orthogonalLoop=1;jettySize=auto;html=1;exitX=0.5;exitY=1;exitDx=0;exitDy=0;entryX=0.5;entryY=0;entryDx=0;entryDy=0;" parent="fXXnFVERwvrqLtGDAkOH-1" source="PGA8JIcSV6rcLDZMiu3c-29" target="PGA8JIcSV6rcLDZMiu3c-31" edge="1">
          <mxGeometry relative="1" as="geometry" />
        </mxCell>
        <mxCell id="PGA8JIcSV6rcLDZMiu3c-29" value="input choice" style="whiteSpace=wrap;html=1;fillColor=#ffffc0;strokeColor=#ff0000;fontColor=#000000;rounded=1;arcSize=40;" parent="fXXnFVERwvrqLtGDAkOH-1" vertex="1">
          <mxGeometry x="339" y="229" width="100" height="25" as="geometry" />
        </mxCell>
        <mxCell id="cAktBOgCvSt8PIggFjyx-4" style="edgeStyle=orthogonalEdgeStyle;rounded=0;orthogonalLoop=1;jettySize=auto;html=1;exitX=0;exitY=0.5;exitDx=0;exitDy=0;entryX=0;entryY=0.5;entryDx=0;entryDy=0;" parent="fXXnFVERwvrqLtGDAkOH-1" source="PGA8JIcSV6rcLDZMiu3c-31" target="PGA8JIcSV6rcLDZMiu3c-18" edge="1">
          <mxGeometry relative="1" as="geometry">
            <Array as="points">
              <mxPoint x="192" y="302" />
              <mxPoint x="192" y="170" />
            </Array>
          </mxGeometry>
        </mxCell>
        <mxCell id="PGA8JIcSV6rcLDZMiu3c-31" value="" style="rhombus;whiteSpace=wrap;html=1;fillColor=#ffffc0;strokeColor=#ff0000;fontColor=#000000;rounded=1;arcSize=40;" parent="fXXnFVERwvrqLtGDAkOH-1" vertex="1">
          <mxGeometry x="362.24" y="279" width="50" height="45" as="geometry" />
        </mxCell>
        <mxCell id="JnjsrjPNI3P4NHt0BBV3-4" value="[valid choice]" style="text;html=1;strokeColor=none;fillColor=none;align=center;verticalAlign=middle;whiteSpace=wrap;rounded=0;" parent="fXXnFVERwvrqLtGDAkOH-1" vertex="1">
          <mxGeometry x="370.62" y="318" width="110" height="30" as="geometry" />
        </mxCell>
        <mxCell id="JnjsrjPNI3P4NHt0BBV3-11" value="[0]" style="text;html=1;align=center;verticalAlign=middle;resizable=0;points=[];autosize=1;strokeColor=none;fillColor=none;" parent="fXXnFVERwvrqLtGDAkOH-1" vertex="1">
          <mxGeometry x="780" y="147" width="40" height="30" as="geometry" />
        </mxCell>
        <mxCell id="JnjsrjPNI3P4NHt0BBV3-24" value="[invalid choice]" style="text;html=1;strokeColor=none;fillColor=none;align=center;verticalAlign=middle;whiteSpace=wrap;rounded=0;" parent="fXXnFVERwvrqLtGDAkOH-1" vertex="1">
          <mxGeometry x="216.24" y="273" width="110" height="30" as="geometry" />
        </mxCell>
        <mxCell id="qN6TfCDTq3izi5uldO_d-11" value="[1]" style="text;html=1;align=center;verticalAlign=middle;resizable=0;points=[];autosize=1;strokeColor=none;fillColor=none;" parent="fXXnFVERwvrqLtGDAkOH-1" vertex="1">
          <mxGeometry x="91" y="368" width="40" height="30" as="geometry" />
        </mxCell>
        <mxCell id="S8y9K5BT4Odg2upRoGJy-24" style="edgeStyle=orthogonalEdgeStyle;rounded=0;orthogonalLoop=1;jettySize=auto;html=1;entryX=0.5;entryY=0;entryDx=0;entryDy=0;" parent="fXXnFVERwvrqLtGDAkOH-1" source="qN6TfCDTq3izi5uldO_d-28" target="SlAe2c4McHCdKNGoCaWc-1" edge="1">
          <mxGeometry relative="1" as="geometry">
            <Array as="points">
              <mxPoint x="304" y="379" />
              <mxPoint x="304" y="379" />
            </Array>
          </mxGeometry>
        </mxCell>
        <mxCell id="sHMYPvp7Yg1w1XAeYFRw-6" style="edgeStyle=orthogonalEdgeStyle;rounded=0;orthogonalLoop=1;jettySize=auto;html=1;exitX=0.794;exitY=0.612;exitDx=0;exitDy=0;exitPerimeter=0;entryX=0.5;entryY=0;entryDx=0;entryDy=0;" parent="fXXnFVERwvrqLtGDAkOH-1" source="qN6TfCDTq3izi5uldO_d-28" target="vmEMMthpNTzjBPs7lZYZ-1" edge="1">
          <mxGeometry relative="1" as="geometry" />
        </mxCell>
        <mxCell id="qN6TfCDTq3izi5uldO_d-28" value="" style="shape=line;html=1;strokeWidth=6;strokeColor=#ff0000;" parent="fXXnFVERwvrqLtGDAkOH-1" vertex="1">
          <mxGeometry x="10.97" y="354" width="790" height="10" as="geometry" />
        </mxCell>
        <mxCell id="qN6TfCDTq3izi5uldO_d-35" style="edgeStyle=orthogonalEdgeStyle;rounded=0;orthogonalLoop=1;jettySize=auto;html=1;entryX=0.5;entryY=1;entryDx=0;entryDy=0;" parent="fXXnFVERwvrqLtGDAkOH-1" source="UrNJfkMPi4ZKKnzb5Xy2-30" target="UrNJfkMPi4ZKKnzb5Xy2-26" edge="1">
          <mxGeometry relative="1" as="geometry">
            <Array as="points">
              <mxPoint x="664" y="110" />
              <mxPoint x="467" y="110" />
            </Array>
            <mxPoint x="547" y="130.25" as="targetPoint" />
          </mxGeometry>
        </mxCell>
        <mxCell id="UrNJfkMPi4ZKKnzb5Xy2-142" value="" style="ellipse;html=1;shape=endState;fillColor=#000000;strokeColor=#ff0000;" parent="fXXnFVERwvrqLtGDAkOH-1" vertex="1">
          <mxGeometry x="399.51612903225805" y="1020" width="31.935483870967747" height="30" as="geometry" />
        </mxCell>
        <mxCell id="UrNJfkMPi4ZKKnzb5Xy2-233" style="edgeStyle=orthogonalEdgeStyle;rounded=0;orthogonalLoop=1;jettySize=auto;html=1;entryX=0.5;entryY=0;entryDx=0;entryDy=0;fillColor=#e51400;strokeColor=#B20000;" parent="fXXnFVERwvrqLtGDAkOH-1" source="UrNJfkMPi4ZKKnzb5Xy2-232" target="UrNJfkMPi4ZKKnzb5Xy2-142" edge="1">
          <mxGeometry relative="1" as="geometry" />
        </mxCell>
        <mxCell id="UrNJfkMPi4ZKKnzb5Xy2-232" value="" style="shape=line;html=1;strokeWidth=6;strokeColor=#ff0000;" parent="fXXnFVERwvrqLtGDAkOH-1" vertex="1">
          <mxGeometry x="10.967741935483843" y="990" width="809.0322580645162" height="10" as="geometry" />
        </mxCell>
        <mxCell id="qN6TfCDTq3izi5uldO_d-47" style="edgeStyle=orthogonalEdgeStyle;rounded=0;orthogonalLoop=1;jettySize=auto;html=1;exitX=0.988;exitY=0.5;exitDx=0;exitDy=0;exitPerimeter=0;entryX=0.965;entryY=0.414;entryDx=0;entryDy=0;entryPerimeter=0;" parent="fXXnFVERwvrqLtGDAkOH-1" source="qN6TfCDTq3izi5uldO_d-28" target="UrNJfkMPi4ZKKnzb5Xy2-232" edge="1">
          <mxGeometry relative="1" as="geometry">
            <mxPoint x="89" y="513" as="sourcePoint" />
            <mxPoint x="92" y="992" as="targetPoint" />
          </mxGeometry>
        </mxCell>
        <mxCell id="_XA2VA1jpzjY_tRrnx5E-2" value="" style="endArrow=classic;html=1;rounded=0;entryX=0.5;entryY=0;entryDx=0;entryDy=0;exitX=0.105;exitY=0.514;exitDx=0;exitDy=0;exitPerimeter=0;" parent="fXXnFVERwvrqLtGDAkOH-1" source="qN6TfCDTq3izi5uldO_d-28" target="ZTObblvWLJTJ8qiHQnO8-1" edge="1">
          <mxGeometry width="50" height="50" relative="1" as="geometry">
            <mxPoint x="94" y="423" as="sourcePoint" />
            <mxPoint x="72.96900000000005" y="550" as="targetPoint" />
          </mxGeometry>
        </mxCell>
        <mxCell id="V6ng5HdLyTL8CkOPGKR4-2" style="edgeStyle=orthogonalEdgeStyle;rounded=0;orthogonalLoop=1;jettySize=auto;html=1;entryX=0.5;entryY=0;entryDx=0;entryDy=0;" parent="fXXnFVERwvrqLtGDAkOH-1" source="ZTObblvWLJTJ8qiHQnO8-1" target="V6ng5HdLyTL8CkOPGKR4-1" edge="1">
          <mxGeometry relative="1" as="geometry" />
        </mxCell>
        <mxCell id="ZTObblvWLJTJ8qiHQnO8-1" value="show menu and message &quot;choose product you want to add to order or select 0 to exit&quot;" style="rounded=1;whiteSpace=wrap;html=1;arcSize=40;fontColor=#000000;fillColor=#ffffc0;strokeColor=#ff0000;" parent="fXXnFVERwvrqLtGDAkOH-1" vertex="1">
          <mxGeometry x="11.25" y="401" width="164.75" height="49" as="geometry" />
        </mxCell>
        <mxCell id="V6ng5HdLyTL8CkOPGKR4-4" style="edgeStyle=orthogonalEdgeStyle;rounded=0;orthogonalLoop=1;jettySize=auto;html=1;entryX=0.5;entryY=0;entryDx=0;entryDy=0;" parent="fXXnFVERwvrqLtGDAkOH-1" source="V6ng5HdLyTL8CkOPGKR4-1" target="V6ng5HdLyTL8CkOPGKR4-3" edge="1">
          <mxGeometry relative="1" as="geometry" />
        </mxCell>
        <mxCell id="V6ng5HdLyTL8CkOPGKR4-1" value="add product to order" style="whiteSpace=wrap;html=1;fillColor=#ffffc0;strokeColor=#ff0000;fontColor=#000000;rounded=1;arcSize=40;" parent="fXXnFVERwvrqLtGDAkOH-1" vertex="1">
          <mxGeometry x="28.630000000000003" y="469" width="130" height="22" as="geometry" />
        </mxCell>
        <mxCell id="m-O2ZovEaDlgFv65_d2M-2" style="edgeStyle=orthogonalEdgeStyle;rounded=0;orthogonalLoop=1;jettySize=auto;html=1;entryX=1;entryY=0.5;entryDx=0;entryDy=0;" parent="fXXnFVERwvrqLtGDAkOH-1" source="V6ng5HdLyTL8CkOPGKR4-3" target="ZTObblvWLJTJ8qiHQnO8-1" edge="1">
          <mxGeometry relative="1" as="geometry">
            <Array as="points">
              <mxPoint x="192" y="540" />
              <mxPoint x="192" y="426" />
              <mxPoint x="176" y="426" />
            </Array>
          </mxGeometry>
        </mxCell>
        <mxCell id="S8y9K5BT4Odg2upRoGJy-22" style="edgeStyle=orthogonalEdgeStyle;rounded=0;orthogonalLoop=1;jettySize=auto;html=1;exitX=0.5;exitY=1;exitDx=0;exitDy=0;entryX=0.103;entryY=0.367;entryDx=0;entryDy=0;entryPerimeter=0;" parent="fXXnFVERwvrqLtGDAkOH-1" source="V6ng5HdLyTL8CkOPGKR4-3" target="UrNJfkMPi4ZKKnzb5Xy2-232" edge="1">
          <mxGeometry relative="1" as="geometry">
            <mxPoint x="94" y="989" as="targetPoint" />
          </mxGeometry>
        </mxCell>
        <mxCell id="V6ng5HdLyTL8CkOPGKR4-3" value="" style="rhombus;whiteSpace=wrap;html=1;fillColor=#ffffc0;strokeColor=#ff0000;fontColor=#000000;rounded=1;arcSize=40;" parent="fXXnFVERwvrqLtGDAkOH-1" vertex="1">
          <mxGeometry x="68.62" y="517" width="50" height="45" as="geometry" />
        </mxCell>
        <mxCell id="m-O2ZovEaDlgFv65_d2M-1" value="[continue add]" style="text;html=1;align=center;verticalAlign=middle;resizable=0;points=[];autosize=1;strokeColor=none;fillColor=none;" parent="fXXnFVERwvrqLtGDAkOH-1" vertex="1">
          <mxGeometry x="99" y="509" width="100" height="30" as="geometry" />
        </mxCell>
        <mxCell id="m-O2ZovEaDlgFv65_d2M-4" value="[not continue]" style="text;html=1;align=center;verticalAlign=middle;resizable=0;points=[];autosize=1;strokeColor=none;fillColor=none;" parent="fXXnFVERwvrqLtGDAkOH-1" vertex="1">
          <mxGeometry x="82" y="602" width="100" height="30" as="geometry" />
        </mxCell>
        <mxCell id="SlAe2c4McHCdKNGoCaWc-5" value="" style="edgeStyle=orthogonalEdgeStyle;rounded=0;orthogonalLoop=1;jettySize=auto;html=1;" parent="fXXnFVERwvrqLtGDAkOH-1" source="SlAe2c4McHCdKNGoCaWc-1" target="SlAe2c4McHCdKNGoCaWc-4" edge="1">
          <mxGeometry relative="1" as="geometry" />
        </mxCell>
        <mxCell id="SlAe2c4McHCdKNGoCaWc-1" value="show list product in order and message &quot;choose product you want to update or select 0 to exit&quot;" style="rounded=1;whiteSpace=wrap;html=1;arcSize=40;fontColor=#000000;fillColor=#ffffc0;strokeColor=#ff0000;" parent="fXXnFVERwvrqLtGDAkOH-1" vertex="1">
          <mxGeometry x="222" y="409" width="164.75" height="60" as="geometry" />
        </mxCell>
        <mxCell id="-2hYiUU0xUgXHUjPXFAr-6" style="edgeStyle=orthogonalEdgeStyle;rounded=0;orthogonalLoop=1;jettySize=auto;html=1;entryX=0.508;entryY=0.044;entryDx=0;entryDy=0;entryPerimeter=0;" parent="fXXnFVERwvrqLtGDAkOH-1" source="SlAe2c4McHCdKNGoCaWc-4" target="SlAe2c4McHCdKNGoCaWc-6" edge="1">
          <mxGeometry relative="1" as="geometry" />
        </mxCell>
        <mxCell id="SlAe2c4McHCdKNGoCaWc-4" value="input choice" style="rounded=1;whiteSpace=wrap;html=1;arcSize=40;fontColor=#000000;fillColor=#ffffc0;strokeColor=#ff0000;" parent="fXXnFVERwvrqLtGDAkOH-1" vertex="1">
          <mxGeometry x="254.47" y="487" width="99.82" height="21" as="geometry" />
        </mxCell>
        <mxCell id="SlAe2c4McHCdKNGoCaWc-8" style="edgeStyle=orthogonalEdgeStyle;rounded=0;orthogonalLoop=1;jettySize=auto;html=1;entryX=0.283;entryY=0.3;entryDx=0;entryDy=0;entryPerimeter=0;exitX=0;exitY=0.5;exitDx=0;exitDy=0;" parent="fXXnFVERwvrqLtGDAkOH-1" source="SlAe2c4McHCdKNGoCaWc-12" target="UrNJfkMPi4ZKKnzb5Xy2-232" edge="1">
          <mxGeometry relative="1" as="geometry">
            <Array as="points">
              <mxPoint x="240" y="612" />
            </Array>
            <mxPoint x="240.07419354838703" y="856.56" as="targetPoint" />
          </mxGeometry>
        </mxCell>
        <mxCell id="SlAe2c4McHCdKNGoCaWc-13" value="" style="edgeStyle=orthogonalEdgeStyle;rounded=0;orthogonalLoop=1;jettySize=auto;html=1;entryX=0.502;entryY=0.1;entryDx=0;entryDy=0;entryPerimeter=0;" parent="fXXnFVERwvrqLtGDAkOH-1" source="SlAe2c4McHCdKNGoCaWc-6" target="SlAe2c4McHCdKNGoCaWc-12" edge="1">
          <mxGeometry relative="1" as="geometry">
            <Array as="points" />
          </mxGeometry>
        </mxCell>
        <mxCell id="SlAe2c4McHCdKNGoCaWc-6" value="" style="rhombus;whiteSpace=wrap;html=1;fillColor=#ffffc0;strokeColor=#ff0000;fontColor=#000000;rounded=1;arcSize=40;" parent="fXXnFVERwvrqLtGDAkOH-1" vertex="1">
          <mxGeometry x="279.38" y="526.5" width="50" height="45" as="geometry" />
        </mxCell>
        <mxCell id="SlAe2c4McHCdKNGoCaWc-9" value="[0]" style="text;html=1;align=center;verticalAlign=middle;resizable=0;points=[];autosize=1;strokeColor=none;fillColor=none;" parent="fXXnFVERwvrqLtGDAkOH-1" vertex="1">
          <mxGeometry x="226.62" y="590" width="40" height="30" as="geometry" />
        </mxCell>
        <mxCell id="SlAe2c4McHCdKNGoCaWc-26" style="edgeStyle=orthogonalEdgeStyle;rounded=0;orthogonalLoop=1;jettySize=auto;html=1;entryX=0.5;entryY=0;entryDx=0;entryDy=0;exitX=0.909;exitY=0.498;exitDx=0;exitDy=0;exitPerimeter=0;" parent="fXXnFVERwvrqLtGDAkOH-1" source="SlAe2c4McHCdKNGoCaWc-12" target="-2hYiUU0xUgXHUjPXFAr-1" edge="1">
          <mxGeometry relative="1" as="geometry">
            <mxPoint x="397.87" y="735" as="targetPoint" />
            <mxPoint x="397.9057142857142" y="686.9678571428572" as="sourcePoint" />
            <Array as="points">
              <mxPoint x="339.62" y="612" />
            </Array>
          </mxGeometry>
        </mxCell>
        <mxCell id="SlAe2c4McHCdKNGoCaWc-12" value="" style="rhombus;whiteSpace=wrap;html=1;fillColor=#ffffc0;strokeColor=#ff0000;fontColor=#000000;rounded=1;arcSize=40;" parent="fXXnFVERwvrqLtGDAkOH-1" vertex="1">
          <mxGeometry x="279.38" y="590" width="50" height="45" as="geometry" />
        </mxCell>
        <mxCell id="SlAe2c4McHCdKNGoCaWc-14" value="[invalid choice]" style="text;html=1;strokeColor=none;fillColor=none;align=center;verticalAlign=middle;whiteSpace=wrap;rounded=0;" parent="fXXnFVERwvrqLtGDAkOH-1" vertex="1">
          <mxGeometry x="319.62" y="525.5" width="110" height="30" as="geometry" />
        </mxCell>
        <mxCell id="SlAe2c4McHCdKNGoCaWc-25" value="[valid choice]" style="text;html=1;strokeColor=none;fillColor=none;align=center;verticalAlign=middle;whiteSpace=wrap;rounded=0;" parent="fXXnFVERwvrqLtGDAkOH-1" vertex="1">
          <mxGeometry x="286.24" y="562" width="110" height="30" as="geometry" />
        </mxCell>
        <mxCell id="SlAe2c4McHCdKNGoCaWc-27" value="[product is on list]" style="text;html=1;align=center;verticalAlign=middle;resizable=0;points=[];autosize=1;strokeColor=none;fillColor=none;strokeWidth=1;" parent="fXXnFVERwvrqLtGDAkOH-1" vertex="1">
          <mxGeometry x="328.24" y="612" width="120" height="30" as="geometry" />
        </mxCell>
        <mxCell id="VYdz3kTRoKXKSgEoDOqt-3" style="edgeStyle=orthogonalEdgeStyle;rounded=0;orthogonalLoop=1;jettySize=auto;html=1;exitX=0.5;exitY=1;exitDx=0;exitDy=0;entryX=0.5;entryY=0;entryDx=0;entryDy=0;" parent="fXXnFVERwvrqLtGDAkOH-1" source="-2hYiUU0xUgXHUjPXFAr-1" target="VYdz3kTRoKXKSgEoDOqt-1" edge="1">
          <mxGeometry relative="1" as="geometry" />
        </mxCell>
        <mxCell id="-2hYiUU0xUgXHUjPXFAr-1" value="show menu and message &quot;choose product or select 0 to exit&quot;" style="rounded=1;whiteSpace=wrap;html=1;arcSize=40;fontColor=#000000;fillColor=#ffffc0;strokeColor=#ff0000;" parent="fXXnFVERwvrqLtGDAkOH-1" vertex="1">
          <mxGeometry x="257.24" y="693" width="164.75" height="41" as="geometry" />
        </mxCell>
        <mxCell id="X4ABCCNUPEd-X_OWVR7p-10" style="edgeStyle=orthogonalEdgeStyle;rounded=0;orthogonalLoop=1;jettySize=auto;html=1;exitX=0.5;exitY=1;exitDx=0;exitDy=0;entryX=0.5;entryY=0;entryDx=0;entryDy=0;" parent="fXXnFVERwvrqLtGDAkOH-1" source="VYdz3kTRoKXKSgEoDOqt-1" target="VYdz3kTRoKXKSgEoDOqt-14" edge="1">
          <mxGeometry relative="1" as="geometry" />
        </mxCell>
        <mxCell id="VYdz3kTRoKXKSgEoDOqt-1" value="add product to order" style="whiteSpace=wrap;html=1;fillColor=#ffffc0;strokeColor=#ff0000;fontColor=#000000;rounded=1;arcSize=40;" parent="fXXnFVERwvrqLtGDAkOH-1" vertex="1">
          <mxGeometry x="274.62" y="771.75" width="130" height="20.5" as="geometry" />
        </mxCell>
        <mxCell id="VYdz3kTRoKXKSgEoDOqt-12" style="edgeStyle=orthogonalEdgeStyle;rounded=0;orthogonalLoop=1;jettySize=auto;html=1;exitX=0.485;exitY=0.734;exitDx=0;exitDy=0;exitPerimeter=0;fillColor=#e51400;strokeColor=#B20000;entryX=1.017;entryY=0.55;entryDx=0;entryDy=0;entryPerimeter=0;" parent="fXXnFVERwvrqLtGDAkOH-1" source="VYdz3kTRoKXKSgEoDOqt-10" target="SlAe2c4McHCdKNGoCaWc-1" edge="1">
          <mxGeometry relative="1" as="geometry">
            <mxPoint x="389.62" y="442" as="targetPoint" />
          </mxGeometry>
        </mxCell>
        <mxCell id="VYdz3kTRoKXKSgEoDOqt-10" value="" style="shape=line;html=1;strokeWidth=6;strokeColor=#ff0000;rotation=90;" parent="fXXnFVERwvrqLtGDAkOH-1" vertex="1">
          <mxGeometry x="384.25" y="437" width="50" height="10" as="geometry" />
        </mxCell>
        <mxCell id="VYdz3kTRoKXKSgEoDOqt-13" style="edgeStyle=orthogonalEdgeStyle;rounded=0;orthogonalLoop=1;jettySize=auto;html=1;entryX=0.75;entryY=0.5;entryDx=0;entryDy=0;entryPerimeter=0;exitX=1;exitY=0.5;exitDx=0;exitDy=0;" parent="fXXnFVERwvrqLtGDAkOH-1" source="SlAe2c4McHCdKNGoCaWc-6" target="VYdz3kTRoKXKSgEoDOqt-10" edge="1">
          <mxGeometry relative="1" as="geometry">
            <Array as="points">
              <mxPoint x="424" y="549" />
              <mxPoint x="424" y="455" />
            </Array>
            <mxPoint x="322" y="549" as="sourcePoint" />
          </mxGeometry>
        </mxCell>
        <mxCell id="VYdz3kTRoKXKSgEoDOqt-16" style="edgeStyle=orthogonalEdgeStyle;rounded=0;orthogonalLoop=1;jettySize=auto;html=1;exitX=1;exitY=0.5;exitDx=0;exitDy=0;" parent="fXXnFVERwvrqLtGDAkOH-1" source="VYdz3kTRoKXKSgEoDOqt-14" edge="1">
          <mxGeometry relative="1" as="geometry">
            <mxPoint x="409.62" y="432" as="targetPoint" />
            <Array as="points">
              <mxPoint x="480" y="877" />
              <mxPoint x="480" y="432" />
            </Array>
          </mxGeometry>
        </mxCell>
        <mxCell id="VYdz3kTRoKXKSgEoDOqt-17" style="edgeStyle=orthogonalEdgeStyle;rounded=0;orthogonalLoop=1;jettySize=auto;html=1;entryX=0.407;entryY=0.5;entryDx=0;entryDy=0;entryPerimeter=0;exitX=0.496;exitY=0.93;exitDx=0;exitDy=0;exitPerimeter=0;" parent="fXXnFVERwvrqLtGDAkOH-1" source="VYdz3kTRoKXKSgEoDOqt-14" target="UrNJfkMPi4ZKKnzb5Xy2-232" edge="1">
          <mxGeometry relative="1" as="geometry">
            <mxPoint x="339.5851612903226" y="857.19" as="targetPoint" />
          </mxGeometry>
        </mxCell>
        <mxCell id="VYdz3kTRoKXKSgEoDOqt-14" value="" style="rhombus;whiteSpace=wrap;html=1;fillColor=#ffffc0;strokeColor=#ff0000;fontColor=#000000;rounded=1;arcSize=40;" parent="fXXnFVERwvrqLtGDAkOH-1" vertex="1">
          <mxGeometry x="314.62" y="854.5" width="50" height="45" as="geometry" />
        </mxCell>
        <mxCell id="X4ABCCNUPEd-X_OWVR7p-1" value="[continue]" style="text;html=1;align=center;verticalAlign=middle;resizable=0;points=[];autosize=1;strokeColor=none;fillColor=none;" parent="fXXnFVERwvrqLtGDAkOH-1" vertex="1">
          <mxGeometry x="370.62" y="849" width="80" height="30" as="geometry" />
        </mxCell>
        <mxCell id="X4ABCCNUPEd-X_OWVR7p-3" value="[not continue]" style="text;html=1;align=center;verticalAlign=middle;resizable=0;points=[];autosize=1;strokeColor=none;fillColor=none;" parent="fXXnFVERwvrqLtGDAkOH-1" vertex="1">
          <mxGeometry x="329.62" y="909" width="100" height="30" as="geometry" />
        </mxCell>
        <mxCell id="X4ABCCNUPEd-X_OWVR7p-16" value="[2]" style="text;html=1;align=center;verticalAlign=middle;resizable=0;points=[];autosize=1;strokeColor=none;fillColor=none;" parent="fXXnFVERwvrqLtGDAkOH-1" vertex="1">
          <mxGeometry x="303" y="357" width="40" height="30" as="geometry" />
        </mxCell>
        <mxCell id="_rHdUsN3kO1IvVLqpVUj-6" style="edgeStyle=orthogonalEdgeStyle;rounded=0;orthogonalLoop=1;jettySize=auto;html=1;exitX=0.5;exitY=1;exitDx=0;exitDy=0;entryX=0.5;entryY=0;entryDx=0;entryDy=0;" parent="fXXnFVERwvrqLtGDAkOH-1" source="vmEMMthpNTzjBPs7lZYZ-1" target="_rHdUsN3kO1IvVLqpVUj-11" edge="1">
          <mxGeometry relative="1" as="geometry">
            <mxPoint x="683.3800000000003" y="545" as="targetPoint" />
            <Array as="points">
              <mxPoint x="637" y="518" />
              <mxPoint x="595" y="518" />
            </Array>
          </mxGeometry>
        </mxCell>
        <mxCell id="vmEMMthpNTzjBPs7lZYZ-1" value="show list product in order and message &quot;choose product you want to confirm or remove, select 0 to exit&quot;" style="rounded=1;whiteSpace=wrap;html=1;arcSize=40;fontColor=#000000;fillColor=#ffffc0;strokeColor=#ff0000;" parent="fXXnFVERwvrqLtGDAkOH-1" vertex="1">
          <mxGeometry x="555" y="411.5" width="164.75" height="61" as="geometry" />
        </mxCell>
        <mxCell id="_rHdUsN3kO1IvVLqpVUj-11" value="input choice" style="rounded=1;whiteSpace=wrap;html=1;arcSize=40;fontColor=#000000;fillColor=#ffffc0;strokeColor=#ff0000;" parent="fXXnFVERwvrqLtGDAkOH-1" vertex="1">
          <mxGeometry x="544.6" y="532.5" width="99.82" height="21" as="geometry" />
        </mxCell>
        <mxCell id="_rHdUsN3kO1IvVLqpVUj-12" style="edgeStyle=orthogonalEdgeStyle;rounded=0;orthogonalLoop=1;jettySize=auto;html=1;entryX=0.508;entryY=0.044;entryDx=0;entryDy=0;entryPerimeter=0;" parent="fXXnFVERwvrqLtGDAkOH-1" source="_rHdUsN3kO1IvVLqpVUj-11" target="_rHdUsN3kO1IvVLqpVUj-13" edge="1">
          <mxGeometry relative="1" as="geometry" />
        </mxCell>
        <mxCell id="_rHdUsN3kO1IvVLqpVUj-13" value="" style="rhombus;whiteSpace=wrap;html=1;fillColor=#ffffc0;strokeColor=#ff0000;fontColor=#000000;rounded=1;arcSize=40;" parent="fXXnFVERwvrqLtGDAkOH-1" vertex="1">
          <mxGeometry x="569.51" y="572" width="50" height="45" as="geometry" />
        </mxCell>
        <mxCell id="_rHdUsN3kO1IvVLqpVUj-14" value="[invalid choice]" style="text;html=1;strokeColor=none;fillColor=none;align=center;verticalAlign=middle;whiteSpace=wrap;rounded=0;" parent="fXXnFVERwvrqLtGDAkOH-1" vertex="1">
          <mxGeometry x="609.75" y="572" width="110" height="30" as="geometry" />
        </mxCell>
        <mxCell id="_rHdUsN3kO1IvVLqpVUj-15" value="" style="edgeStyle=orthogonalEdgeStyle;rounded=0;orthogonalLoop=1;jettySize=auto;html=1;entryX=0.502;entryY=0.1;entryDx=0;entryDy=0;entryPerimeter=0;" parent="fXXnFVERwvrqLtGDAkOH-1" source="_rHdUsN3kO1IvVLqpVUj-13" target="_rHdUsN3kO1IvVLqpVUj-19" edge="1">
          <mxGeometry relative="1" as="geometry">
            <Array as="points" />
          </mxGeometry>
        </mxCell>
        <mxCell id="_rHdUsN3kO1IvVLqpVUj-16" value="[valid choice]" style="text;html=1;strokeColor=none;fillColor=none;align=center;verticalAlign=middle;whiteSpace=wrap;rounded=0;" parent="fXXnFVERwvrqLtGDAkOH-1" vertex="1">
          <mxGeometry x="576.37" y="607.5" width="110" height="30" as="geometry" />
        </mxCell>
        <mxCell id="_rHdUsN3kO1IvVLqpVUj-17" value="" style="edgeStyle=orthogonalEdgeStyle;rounded=0;orthogonalLoop=1;jettySize=auto;html=1;entryX=1;entryY=0.5;entryDx=0;entryDy=0;" parent="fXXnFVERwvrqLtGDAkOH-1" source="_rHdUsN3kO1IvVLqpVUj-13" target="vmEMMthpNTzjBPs7lZYZ-1" edge="1">
          <mxGeometry relative="1" as="geometry">
            <mxPoint x="743.5" y="562" as="targetPoint" />
            <Array as="points">
              <mxPoint x="740" y="595" />
              <mxPoint x="740" y="442" />
            </Array>
          </mxGeometry>
        </mxCell>
        <mxCell id="_rHdUsN3kO1IvVLqpVUj-22" style="edgeStyle=orthogonalEdgeStyle;rounded=0;orthogonalLoop=1;jettySize=auto;html=1;entryX=0.555;entryY=0.571;entryDx=0;entryDy=0;entryPerimeter=0;" parent="fXXnFVERwvrqLtGDAkOH-1" source="_rHdUsN3kO1IvVLqpVUj-19" edge="1">
          <mxGeometry relative="1" as="geometry">
            <Array as="points">
              <mxPoint x="503" y="658" />
            </Array>
            <mxPoint x="502.98064516129034" y="994.71" as="targetPoint" />
          </mxGeometry>
        </mxCell>
        <mxCell id="_rHdUsN3kO1IvVLqpVUj-19" value="" style="rhombus;whiteSpace=wrap;html=1;fillColor=#ffffc0;strokeColor=#ff0000;fontColor=#000000;rounded=1;arcSize=40;" parent="fXXnFVERwvrqLtGDAkOH-1" vertex="1">
          <mxGeometry x="569.51" y="635.5" width="50" height="45" as="geometry" />
        </mxCell>
        <mxCell id="_rHdUsN3kO1IvVLqpVUj-20" value="[product is on list]" style="text;html=1;align=center;verticalAlign=middle;resizable=0;points=[];autosize=1;strokeColor=none;fillColor=none;strokeWidth=1;" parent="fXXnFVERwvrqLtGDAkOH-1" vertex="1">
          <mxGeometry x="619.51" y="643" width="120" height="30" as="geometry" />
        </mxCell>
        <mxCell id="_rHdUsN3kO1IvVLqpVUj-21" style="edgeStyle=orthogonalEdgeStyle;rounded=0;orthogonalLoop=1;jettySize=auto;html=1;exitX=0.909;exitY=0.498;exitDx=0;exitDy=0;exitPerimeter=0;entryX=0.494;entryY=0.074;entryDx=0;entryDy=0;entryPerimeter=0;" parent="fXXnFVERwvrqLtGDAkOH-1" source="_rHdUsN3kO1IvVLqpVUj-19" target="_rHdUsN3kO1IvVLqpVUj-32" edge="1">
          <mxGeometry relative="1" as="geometry">
            <mxPoint x="630" y="708" as="targetPoint" />
            <mxPoint x="688.0357142857142" y="732.4678571428572" as="sourcePoint" />
            <Array as="points">
              <mxPoint x="630" y="658" />
              <mxPoint x="630" y="711" />
            </Array>
          </mxGeometry>
        </mxCell>
        <mxCell id="_rHdUsN3kO1IvVLqpVUj-24" value="[0]" style="text;html=1;align=center;verticalAlign=middle;resizable=0;points=[];autosize=1;strokeColor=none;fillColor=none;" parent="fXXnFVERwvrqLtGDAkOH-1" vertex="1">
          <mxGeometry x="534" y="632.5" width="40" height="30" as="geometry" />
        </mxCell>
        <mxCell id="_rHdUsN3kO1IvVLqpVUj-33" style="edgeStyle=orthogonalEdgeStyle;rounded=0;orthogonalLoop=1;jettySize=auto;html=1;exitX=0;exitY=0.5;exitDx=0;exitDy=0;" parent="fXXnFVERwvrqLtGDAkOH-1" source="_rHdUsN3kO1IvVLqpVUj-32" edge="1">
          <mxGeometry relative="1" as="geometry">
            <mxPoint x="565" y="828" as="targetPoint" />
          </mxGeometry>
        </mxCell>
        <mxCell id="_rHdUsN3kO1IvVLqpVUj-38" style="edgeStyle=orthogonalEdgeStyle;rounded=0;orthogonalLoop=1;jettySize=auto;html=1;exitX=1;exitY=0.5;exitDx=0;exitDy=0;entryX=0.5;entryY=0;entryDx=0;entryDy=0;" parent="fXXnFVERwvrqLtGDAkOH-1" source="_rHdUsN3kO1IvVLqpVUj-32" target="_rHdUsN3kO1IvVLqpVUj-37" edge="1">
          <mxGeometry relative="1" as="geometry" />
        </mxCell>
        <mxCell id="_rHdUsN3kO1IvVLqpVUj-32" value="" style="rhombus;whiteSpace=wrap;html=1;fillColor=#ffffc0;strokeColor=#ff0000;fontColor=#000000;rounded=1;arcSize=40;" parent="fXXnFVERwvrqLtGDAkOH-1" vertex="1">
          <mxGeometry x="605.37" y="707.5" width="50" height="45" as="geometry" />
        </mxCell>
        <mxCell id="_rHdUsN3kO1IvVLqpVUj-34" value="[remove]" style="text;html=1;align=center;verticalAlign=middle;resizable=0;points=[];autosize=1;strokeColor=none;fillColor=none;strokeWidth=1;" parent="fXXnFVERwvrqLtGDAkOH-1" vertex="1">
          <mxGeometry x="544.6" y="707.5" width="70" height="30" as="geometry" />
        </mxCell>
        <mxCell id="_rHdUsN3kO1IvVLqpVUj-35" value="show message &quot;remove complete&quot;" style="whiteSpace=wrap;html=1;fillColor=#ffffc0;strokeColor=#ff0000;fontColor=#000000;rounded=1;arcSize=40;" parent="fXXnFVERwvrqLtGDAkOH-1" vertex="1">
          <mxGeometry x="513.37" y="828" width="105" height="26.5" as="geometry" />
        </mxCell>
        <mxCell id="_rHdUsN3kO1IvVLqpVUj-36" style="edgeStyle=orthogonalEdgeStyle;rounded=0;orthogonalLoop=1;jettySize=auto;html=1;exitX=0.5;exitY=1;exitDx=0;exitDy=0;entryX=0.633;entryY=0.522;entryDx=0;entryDy=0;entryPerimeter=0;" parent="fXXnFVERwvrqLtGDAkOH-1" source="_rHdUsN3kO1IvVLqpVUj-35" edge="1">
          <mxGeometry relative="1" as="geometry">
            <mxPoint x="566.0851612903225" y="994.22" as="targetPoint" />
          </mxGeometry>
        </mxCell>
        <mxCell id="S8y9K5BT4Odg2upRoGJy-23" style="edgeStyle=orthogonalEdgeStyle;rounded=0;orthogonalLoop=1;jettySize=auto;html=1;exitX=0.5;exitY=1;exitDx=0;exitDy=0;entryX=0.88;entryY=0.619;entryDx=0;entryDy=0;entryPerimeter=0;" parent="fXXnFVERwvrqLtGDAkOH-1" source="_rHdUsN3kO1IvVLqpVUj-37" target="UrNJfkMPi4ZKKnzb5Xy2-232" edge="1">
          <mxGeometry relative="1" as="geometry" />
        </mxCell>
        <mxCell id="_rHdUsN3kO1IvVLqpVUj-37" value="show message &quot;product has been confirm&quot;" style="whiteSpace=wrap;html=1;fillColor=#ffffc0;strokeColor=#ff0000;fontColor=#000000;rounded=1;arcSize=40;" parent="fXXnFVERwvrqLtGDAkOH-1" vertex="1">
          <mxGeometry x="670" y="828" width="105" height="41" as="geometry" />
        </mxCell>
        <mxCell id="_rHdUsN3kO1IvVLqpVUj-39" value="[confirm]" style="text;html=1;align=center;verticalAlign=middle;resizable=0;points=[];autosize=1;strokeColor=none;fillColor=none;strokeWidth=1;" parent="fXXnFVERwvrqLtGDAkOH-1" vertex="1">
          <mxGeometry x="649.75" y="707.5" width="70" height="30" as="geometry" />
        </mxCell>
        <mxCell id="xbGDI6Vr_1ja5dIeoJTs-1" value="[3]" style="text;html=1;align=center;verticalAlign=middle;resizable=0;points=[];autosize=1;strokeColor=none;fillColor=none;" parent="fXXnFVERwvrqLtGDAkOH-1" vertex="1">
          <mxGeometry x="635" y="355" width="40" height="30" as="geometry" />
        </mxCell>
        <mxCell id="sdtX5ugbhMCICpfSF6XR-3" style="edgeStyle=orthogonalEdgeStyle;rounded=0;orthogonalLoop=1;jettySize=auto;html=1;exitX=0.5;exitY=1;exitDx=0;exitDy=0;entryX=0.477;entryY=0.6;entryDx=0;entryDy=0;entryPerimeter=0;" parent="fXXnFVERwvrqLtGDAkOH-1" source="PGA8JIcSV6rcLDZMiu3c-31" target="qN6TfCDTq3izi5uldO_d-28" edge="1">
          <mxGeometry relative="1" as="geometry" />
        </mxCell>
      </root>
    </mxGraphModel>
  </diagram>
  <diagram id="YPW-VH7rI1jWMDNoEwiq" name="Payment">
    <mxGraphModel dx="446" dy="563" grid="1" gridSize="10" guides="1" tooltips="1" connect="1" arrows="1" fold="1" page="1" pageScale="1" pageWidth="827" pageHeight="1169" math="0" shadow="0">
      <root>
        <mxCell id="0" />
        <mxCell id="1" parent="0" />
        <mxCell id="6ZWS2Ka-c_2pxbxBEtdY-1" value="Payment" style="swimlane;whiteSpace=wrap;html=1;" parent="1" vertex="1">
          <mxGeometry x="19" y="19" width="790" height="1130" as="geometry">
            <mxRectangle x="10" width="160" height="30" as="alternateBounds" />
          </mxGeometry>
        </mxCell>
        <mxCell id="u-W0R7TsiUDkB_9cNo-g-1" value="" style="ellipse;html=1;shape=startState;fillColor=#000000;strokeColor=#ff0000;" parent="6ZWS2Ka-c_2pxbxBEtdY-1" vertex="1">
          <mxGeometry x="380" y="80" width="30" height="30" as="geometry" />
        </mxCell>
        <mxCell id="u-W0R7TsiUDkB_9cNo-g-2" value="" style="edgeStyle=orthogonalEdgeStyle;html=1;verticalAlign=bottom;endArrow=open;endSize=8;strokeColor=#ff0000;rounded=0;" parent="6ZWS2Ka-c_2pxbxBEtdY-1" source="u-W0R7TsiUDkB_9cNo-g-1" edge="1">
          <mxGeometry relative="1" as="geometry">
            <mxPoint x="395" y="170" as="targetPoint" />
          </mxGeometry>
        </mxCell>
        <mxCell id="u-W0R7TsiUDkB_9cNo-g-8" value="" style="edgeStyle=orthogonalEdgeStyle;rounded=0;orthogonalLoop=1;jettySize=auto;html=1;entryX=0.5;entryY=0;entryDx=0;entryDy=0;" parent="6ZWS2Ka-c_2pxbxBEtdY-1" source="u-W0R7TsiUDkB_9cNo-g-3" target="4Z4BRpVy0yh7lMEATTHj-1" edge="1">
          <mxGeometry relative="1" as="geometry">
            <mxPoint x="394.95000000000005" y="304.25" as="targetPoint" />
          </mxGeometry>
        </mxCell>
        <mxCell id="u-W0R7TsiUDkB_9cNo-g-3" value="Show list order and message &quot; choose order you want to pay or press 0 to exit." style="rounded=1;whiteSpace=wrap;html=1;arcSize=40;fontColor=#000000;fillColor=#ffffc0;strokeColor=#ff0000;" parent="6ZWS2Ka-c_2pxbxBEtdY-1" vertex="1">
          <mxGeometry x="317.5" y="170" width="155" height="60" as="geometry" />
        </mxCell>
        <mxCell id="xzZlH8nBlfK-TUBIrcup-2" style="edgeStyle=orthogonalEdgeStyle;rounded=0;orthogonalLoop=1;jettySize=auto;html=1;entryX=0.5;entryY=0;entryDx=0;entryDy=0;" parent="6ZWS2Ka-c_2pxbxBEtdY-1" source="4Z4BRpVy0yh7lMEATTHj-1" target="xzZlH8nBlfK-TUBIrcup-1" edge="1">
          <mxGeometry relative="1" as="geometry" />
        </mxCell>
        <mxCell id="4Z4BRpVy0yh7lMEATTHj-1" value="input choice" style="rounded=1;whiteSpace=wrap;html=1;arcSize=40;fontColor=#000000;fillColor=#ffffc0;strokeColor=#ff0000;" parent="6ZWS2Ka-c_2pxbxBEtdY-1" vertex="1">
          <mxGeometry x="345" y="290" width="99.82" height="21" as="geometry" />
        </mxCell>
        <mxCell id="u9LeDM4mw5E7zFFd9d33-2" style="edgeStyle=orthogonalEdgeStyle;rounded=0;orthogonalLoop=1;jettySize=auto;html=1;exitX=1;exitY=0.5;exitDx=0;exitDy=0;entryX=0;entryY=0.5;entryDx=0;entryDy=0;" parent="6ZWS2Ka-c_2pxbxBEtdY-1" source="xzZlH8nBlfK-TUBIrcup-1" target="u9LeDM4mw5E7zFFd9d33-1" edge="1">
          <mxGeometry relative="1" as="geometry" />
        </mxCell>
        <mxCell id="FxTnGhZAJDzoU8HkoEIE-3" style="edgeStyle=orthogonalEdgeStyle;rounded=0;orthogonalLoop=1;jettySize=auto;html=1;exitX=0.5;exitY=1;exitDx=0;exitDy=0;entryX=0.5;entryY=0;entryDx=0;entryDy=0;" parent="6ZWS2Ka-c_2pxbxBEtdY-1" source="xzZlH8nBlfK-TUBIrcup-1" target="FxTnGhZAJDzoU8HkoEIE-1" edge="1">
          <mxGeometry relative="1" as="geometry" />
        </mxCell>
        <mxCell id="xzZlH8nBlfK-TUBIrcup-1" value="" style="rhombus;whiteSpace=wrap;html=1;fillColor=#ffffc0;strokeColor=#ff0000;fontColor=#000000;rounded=1;arcSize=40;" parent="6ZWS2Ka-c_2pxbxBEtdY-1" vertex="1">
          <mxGeometry x="369" y="370" width="50.37" height="50" as="geometry" />
        </mxCell>
        <mxCell id="u9LeDM4mw5E7zFFd9d33-3" style="edgeStyle=orthogonalEdgeStyle;rounded=0;orthogonalLoop=1;jettySize=auto;html=1;exitX=0.5;exitY=0;exitDx=0;exitDy=0;entryX=1;entryY=0.5;entryDx=0;entryDy=0;" parent="6ZWS2Ka-c_2pxbxBEtdY-1" source="u9LeDM4mw5E7zFFd9d33-1" target="4Z4BRpVy0yh7lMEATTHj-1" edge="1">
          <mxGeometry relative="1" as="geometry" />
        </mxCell>
        <mxCell id="u9LeDM4mw5E7zFFd9d33-1" value="show message&lt;br&gt;&quot;invalid choice, please re-enter&quot;" style="rounded=1;whiteSpace=wrap;html=1;arcSize=40;fontColor=#000000;fillColor=#ffffc0;strokeColor=#ff0000;" parent="6ZWS2Ka-c_2pxbxBEtdY-1" vertex="1">
          <mxGeometry x="591" y="369" width="147" height="52.5" as="geometry" />
        </mxCell>
        <mxCell id="FxTnGhZAJDzoU8HkoEIE-1" value="show order details and total amount of order and message &quot;1. Pay this order&lt;br&gt;2.Cancel order&lt;br&gt;0. Exit.&quot;" style="rounded=1;whiteSpace=wrap;html=1;arcSize=40;fontColor=#000000;fillColor=#ffffc0;strokeColor=#ff0000;" parent="6ZWS2Ka-c_2pxbxBEtdY-1" vertex="1">
          <mxGeometry x="308" y="450" width="173" height="70" as="geometry" />
        </mxCell>
        <mxCell id="76dPMs_euqt4tA6rNILW-14" value="" style="edgeStyle=orthogonalEdgeStyle;rounded=0;orthogonalLoop=1;jettySize=auto;html=1;" parent="6ZWS2Ka-c_2pxbxBEtdY-1" source="76dPMs_euqt4tA6rNILW-9" target="76dPMs_euqt4tA6rNILW-13" edge="1">
          <mxGeometry relative="1" as="geometry" />
        </mxCell>
        <mxCell id="FdNmokenJ6ZyeSQpQu_c-4" value="" style="edgeStyle=orthogonalEdgeStyle;rounded=0;orthogonalLoop=1;jettySize=auto;html=1;" parent="6ZWS2Ka-c_2pxbxBEtdY-1" source="76dPMs_euqt4tA6rNILW-9" edge="1">
          <mxGeometry relative="1" as="geometry">
            <mxPoint x="270.9949999999999" y="806" as="targetPoint" />
          </mxGeometry>
        </mxCell>
        <mxCell id="76dPMs_euqt4tA6rNILW-9" value="" style="rhombus;whiteSpace=wrap;html=1;fillColor=#ffffc0;strokeColor=#ff0000;fontColor=#000000;rounded=1;arcSize=40;" parent="6ZWS2Ka-c_2pxbxBEtdY-1" vertex="1">
          <mxGeometry x="369" y="781" width="50.37" height="50" as="geometry" />
        </mxCell>
        <mxCell id="76dPMs_euqt4tA6rNILW-16" value="" style="edgeStyle=orthogonalEdgeStyle;rounded=0;orthogonalLoop=1;jettySize=auto;html=1;" parent="6ZWS2Ka-c_2pxbxBEtdY-1" source="76dPMs_euqt4tA6rNILW-13" target="76dPMs_euqt4tA6rNILW-15" edge="1">
          <mxGeometry relative="1" as="geometry" />
        </mxCell>
        <mxCell id="76dPMs_euqt4tA6rNILW-18" value="" style="edgeStyle=orthogonalEdgeStyle;rounded=0;orthogonalLoop=1;jettySize=auto;html=1;" parent="6ZWS2Ka-c_2pxbxBEtdY-1" source="76dPMs_euqt4tA6rNILW-13" target="76dPMs_euqt4tA6rNILW-17" edge="1">
          <mxGeometry relative="1" as="geometry" />
        </mxCell>
        <mxCell id="76dPMs_euqt4tA6rNILW-13" value="" style="rhombus;whiteSpace=wrap;html=1;fillColor=#ffffc0;strokeColor=#ff0000;fontColor=#000000;rounded=1;arcSize=40;" parent="6ZWS2Ka-c_2pxbxBEtdY-1" vertex="1">
          <mxGeometry x="491" y="781" width="50.37" height="50" as="geometry" />
        </mxCell>
        <mxCell id="76dPMs_euqt4tA6rNILW-15" value="Show message&lt;br&gt;&quot;Payment success&quot;&lt;br&gt;and bill&amp;nbsp;" style="whiteSpace=wrap;html=1;fillColor=#ffffc0;strokeColor=#ff0000;fontColor=#000000;rounded=1;arcSize=40;" parent="6ZWS2Ka-c_2pxbxBEtdY-1" vertex="1">
          <mxGeometry x="651.005" y="836" width="120" height="60" as="geometry" />
        </mxCell>
        <mxCell id="76dPMs_euqt4tA6rNILW-17" value="Show message&amp;nbsp;&lt;br&gt;&quot;There are products in the order that have not been confirmed, please confirm all product in order before payment.&quot;" style="whiteSpace=wrap;html=1;fillColor=#ffffc0;strokeColor=#ff0000;fontColor=#000000;rounded=1;arcSize=40;" parent="6ZWS2Ka-c_2pxbxBEtdY-1" vertex="1">
          <mxGeometry x="436.69" y="891" width="159" height="84" as="geometry" />
        </mxCell>
        <mxCell id="76dPMs_euqt4tA6rNILW-20" value="" style="ellipse;html=1;shape=endState;fillColor=#000000;strokeColor=#ff0000;" parent="6ZWS2Ka-c_2pxbxBEtdY-1" vertex="1">
          <mxGeometry x="379.18" y="1071" width="30" height="30" as="geometry" />
        </mxCell>
        <mxCell id="FdNmokenJ6ZyeSQpQu_c-17" style="edgeStyle=orthogonalEdgeStyle;rounded=0;orthogonalLoop=1;jettySize=auto;html=1;exitX=0.499;exitY=0.457;exitDx=0;exitDy=0;exitPerimeter=0;entryX=0.5;entryY=0;entryDx=0;entryDy=0;fillColor=#e51400;strokeColor=#B20000;" parent="6ZWS2Ka-c_2pxbxBEtdY-1" source="76dPMs_euqt4tA6rNILW-21" target="76dPMs_euqt4tA6rNILW-20" edge="1">
          <mxGeometry relative="1" as="geometry" />
        </mxCell>
        <mxCell id="76dPMs_euqt4tA6rNILW-21" value="" style="shape=line;html=1;strokeWidth=6;strokeColor=#ff0000;" parent="6ZWS2Ka-c_2pxbxBEtdY-1" vertex="1">
          <mxGeometry x="10" y="1021" width="770" height="29" as="geometry" />
        </mxCell>
        <mxCell id="76dPMs_euqt4tA6rNILW-28" style="edgeStyle=orthogonalEdgeStyle;rounded=0;orthogonalLoop=1;jettySize=auto;html=1;exitX=0;exitY=0.5;exitDx=0;exitDy=0;entryX=0.05;entryY=0.477;entryDx=0;entryDy=0;entryPerimeter=0;" parent="6ZWS2Ka-c_2pxbxBEtdY-1" source="xzZlH8nBlfK-TUBIrcup-1" target="76dPMs_euqt4tA6rNILW-21" edge="1">
          <mxGeometry relative="1" as="geometry">
            <mxPoint x="51" y="511" as="targetPoint" />
            <Array as="points">
              <mxPoint x="49" y="395" />
              <mxPoint x="49" y="721" />
            </Array>
          </mxGeometry>
        </mxCell>
        <mxCell id="FdNmokenJ6ZyeSQpQu_c-10" style="edgeStyle=orthogonalEdgeStyle;rounded=0;orthogonalLoop=1;jettySize=auto;html=1;entryX=0.309;entryY=0.47;entryDx=0;entryDy=0;entryPerimeter=0;" parent="6ZWS2Ka-c_2pxbxBEtdY-1" source="FdNmokenJ6ZyeSQpQu_c-7" target="76dPMs_euqt4tA6rNILW-21" edge="1">
          <mxGeometry relative="1" as="geometry" />
        </mxCell>
        <mxCell id="FdNmokenJ6ZyeSQpQu_c-7" value="Show message&lt;br&gt;&quot;Cancel complete&quot;" style="whiteSpace=wrap;html=1;fillColor=#ffffc0;strokeColor=#ff0000;fontColor=#000000;rounded=1;arcSize=40;" parent="6ZWS2Ka-c_2pxbxBEtdY-1" vertex="1">
          <mxGeometry x="188.005" y="891" width="120" height="60" as="geometry" />
        </mxCell>
        <mxCell id="FdNmokenJ6ZyeSQpQu_c-14" style="edgeStyle=orthogonalEdgeStyle;rounded=0;orthogonalLoop=1;jettySize=auto;html=1;entryX=0.91;entryY=0.515;entryDx=0;entryDy=0;entryPerimeter=0;" parent="6ZWS2Ka-c_2pxbxBEtdY-1" source="76dPMs_euqt4tA6rNILW-15" target="76dPMs_euqt4tA6rNILW-21" edge="1">
          <mxGeometry relative="1" as="geometry">
            <mxPoint x="711" y="991" as="targetPoint" />
          </mxGeometry>
        </mxCell>
        <mxCell id="FdNmokenJ6ZyeSQpQu_c-15" style="edgeStyle=orthogonalEdgeStyle;rounded=0;orthogonalLoop=1;jettySize=auto;html=1;exitX=0.5;exitY=1;exitDx=0;exitDy=0;entryX=0.657;entryY=0.501;entryDx=0;entryDy=0;entryPerimeter=0;" parent="6ZWS2Ka-c_2pxbxBEtdY-1" source="76dPMs_euqt4tA6rNILW-17" target="76dPMs_euqt4tA6rNILW-21" edge="1">
          <mxGeometry relative="1" as="geometry" />
        </mxCell>
        <mxCell id="qOaVUb-7rygSladl2oox-1" value="[invalid choice]" style="text;html=1;strokeColor=none;fillColor=none;align=center;verticalAlign=middle;whiteSpace=wrap;rounded=0;" parent="6ZWS2Ka-c_2pxbxBEtdY-1" vertex="1">
          <mxGeometry x="444.82" y="367" width="110" height="30" as="geometry" />
        </mxCell>
        <mxCell id="qOaVUb-7rygSladl2oox-2" value="[valid choice]" style="text;html=1;strokeColor=none;fillColor=none;align=center;verticalAlign=middle;whiteSpace=wrap;rounded=0;" parent="6ZWS2Ka-c_2pxbxBEtdY-1" vertex="1">
          <mxGeometry x="381" y="411" width="110" height="30" as="geometry" />
        </mxCell>
        <mxCell id="qOaVUb-7rygSladl2oox-3" value="[invalid choice]" style="text;html=1;strokeColor=none;fillColor=none;align=center;verticalAlign=middle;whiteSpace=wrap;rounded=0;" parent="6ZWS2Ka-c_2pxbxBEtdY-1" vertex="1">
          <mxGeometry x="431.37" y="651" width="110" height="30" as="geometry" />
        </mxCell>
        <mxCell id="qOaVUb-7rygSladl2oox-4" value="[valid choice]" style="text;html=1;strokeColor=none;fillColor=none;align=center;verticalAlign=middle;whiteSpace=wrap;rounded=0;" parent="6ZWS2Ka-c_2pxbxBEtdY-1" vertex="1">
          <mxGeometry x="379.18" y="711" width="110" height="30" as="geometry" />
        </mxCell>
        <mxCell id="qOaVUb-7rygSladl2oox-5" value="[payment]" style="text;html=1;strokeColor=none;fillColor=none;align=center;verticalAlign=middle;whiteSpace=wrap;rounded=0;" parent="6ZWS2Ka-c_2pxbxBEtdY-1" vertex="1">
          <mxGeometry x="395" y="781" width="110" height="30" as="geometry" />
        </mxCell>
        <mxCell id="qOaVUb-7rygSladl2oox-6" value="[cancel order]" style="text;html=1;strokeColor=none;fillColor=none;align=center;verticalAlign=middle;whiteSpace=wrap;rounded=0;" parent="6ZWS2Ka-c_2pxbxBEtdY-1" vertex="1">
          <mxGeometry x="271" y="781" width="110" height="30" as="geometry" />
        </mxCell>
        <mxCell id="qOaVUb-7rygSladl2oox-8" value="[there&#39;re unconfirmed products]" style="text;html=1;strokeColor=none;fillColor=none;align=center;verticalAlign=middle;whiteSpace=wrap;rounded=0;" parent="6ZWS2Ka-c_2pxbxBEtdY-1" vertex="1">
          <mxGeometry x="498" y="841" width="110" height="30" as="geometry" />
        </mxCell>
        <mxCell id="qOaVUb-7rygSladl2oox-9" value="[all products has been confirmed]" style="text;html=1;strokeColor=none;fillColor=none;align=center;verticalAlign=middle;whiteSpace=wrap;rounded=0;" parent="6ZWS2Ka-c_2pxbxBEtdY-1" vertex="1">
          <mxGeometry x="525" y="771" width="110" height="30" as="geometry" />
        </mxCell>
        <mxCell id="qOaVUb-7rygSladl2oox-10" value="[yes]" style="text;html=1;strokeColor=none;fillColor=none;align=center;verticalAlign=middle;whiteSpace=wrap;rounded=0;" parent="6ZWS2Ka-c_2pxbxBEtdY-1" vertex="1">
          <mxGeometry x="222" y="840" width="110" height="30" as="geometry" />
        </mxCell>
        <mxCell id="qOaVUb-7rygSladl2oox-11" value="[no]" style="text;html=1;strokeColor=none;fillColor=none;align=center;verticalAlign=middle;whiteSpace=wrap;rounded=0;" parent="6ZWS2Ka-c_2pxbxBEtdY-1" vertex="1">
          <mxGeometry x="131" y="781" width="110" height="30" as="geometry" />
        </mxCell>
        <mxCell id="76dPMs_euqt4tA6rNILW-3" style="edgeStyle=orthogonalEdgeStyle;rounded=0;orthogonalLoop=1;jettySize=auto;html=1;entryX=0.5;entryY=0;entryDx=0;entryDy=0;" parent="1" source="76dPMs_euqt4tA6rNILW-4" target="76dPMs_euqt4tA6rNILW-6" edge="1">
          <mxGeometry relative="1" as="geometry" />
        </mxCell>
        <mxCell id="76dPMs_euqt4tA6rNILW-4" value="input choice" style="rounded=1;whiteSpace=wrap;html=1;arcSize=40;fontColor=#000000;fillColor=#ffffc0;strokeColor=#ff0000;" parent="1" vertex="1">
          <mxGeometry x="363" y="590" width="99.82" height="21" as="geometry" />
        </mxCell>
        <mxCell id="76dPMs_euqt4tA6rNILW-5" style="edgeStyle=orthogonalEdgeStyle;rounded=0;orthogonalLoop=1;jettySize=auto;html=1;exitX=1;exitY=0.5;exitDx=0;exitDy=0;entryX=0;entryY=0.5;entryDx=0;entryDy=0;" parent="1" source="76dPMs_euqt4tA6rNILW-6" target="76dPMs_euqt4tA6rNILW-8" edge="1">
          <mxGeometry relative="1" as="geometry" />
        </mxCell>
        <mxCell id="76dPMs_euqt4tA6rNILW-10" value="" style="edgeStyle=orthogonalEdgeStyle;rounded=0;orthogonalLoop=1;jettySize=auto;html=1;" parent="1" source="76dPMs_euqt4tA6rNILW-6" target="76dPMs_euqt4tA6rNILW-9" edge="1">
          <mxGeometry relative="1" as="geometry" />
        </mxCell>
        <mxCell id="76dPMs_euqt4tA6rNILW-27" style="edgeStyle=orthogonalEdgeStyle;rounded=0;orthogonalLoop=1;jettySize=auto;html=1;exitX=0;exitY=0.5;exitDx=0;exitDy=0;entryX=0.079;entryY=0.477;entryDx=0;entryDy=0;entryPerimeter=0;" parent="1" source="76dPMs_euqt4tA6rNILW-6" target="76dPMs_euqt4tA6rNILW-21" edge="1">
          <mxGeometry relative="1" as="geometry">
            <Array as="points">
              <mxPoint x="90" y="695" />
            </Array>
          </mxGeometry>
        </mxCell>
        <mxCell id="76dPMs_euqt4tA6rNILW-6" value="" style="rhombus;whiteSpace=wrap;html=1;fillColor=#ffffc0;strokeColor=#ff0000;fontColor=#000000;rounded=1;arcSize=40;" parent="1" vertex="1">
          <mxGeometry x="388" y="670" width="50.37" height="50" as="geometry" />
        </mxCell>
        <mxCell id="76dPMs_euqt4tA6rNILW-7" style="edgeStyle=orthogonalEdgeStyle;rounded=0;orthogonalLoop=1;jettySize=auto;html=1;exitX=0.5;exitY=0;exitDx=0;exitDy=0;entryX=1;entryY=0.5;entryDx=0;entryDy=0;" parent="1" source="76dPMs_euqt4tA6rNILW-8" target="76dPMs_euqt4tA6rNILW-4" edge="1">
          <mxGeometry relative="1" as="geometry" />
        </mxCell>
        <mxCell id="76dPMs_euqt4tA6rNILW-8" value="show message&lt;br&gt;&quot;invalid choice, please re-enter&quot;" style="rounded=1;whiteSpace=wrap;html=1;arcSize=40;fontColor=#000000;fillColor=#ffffc0;strokeColor=#ff0000;" parent="1" vertex="1">
          <mxGeometry x="610" y="669" width="147" height="52.5" as="geometry" />
        </mxCell>
        <mxCell id="FdNmokenJ6ZyeSQpQu_c-1" value="[0]" style="text;html=1;align=center;verticalAlign=middle;resizable=0;points=[];autosize=1;strokeColor=none;fillColor=none;" parent="1" vertex="1">
          <mxGeometry x="354" y="387" width="40" height="30" as="geometry" />
        </mxCell>
        <mxCell id="FdNmokenJ6ZyeSQpQu_c-2" value="[0]" style="text;html=1;align=center;verticalAlign=middle;resizable=0;points=[];autosize=1;strokeColor=none;fillColor=none;" parent="1" vertex="1">
          <mxGeometry x="355" y="667" width="40" height="30" as="geometry" />
        </mxCell>
        <mxCell id="FdNmokenJ6ZyeSQpQu_c-8" value="" style="edgeStyle=orthogonalEdgeStyle;rounded=0;orthogonalLoop=1;jettySize=auto;html=1;" parent="1" source="FdNmokenJ6ZyeSQpQu_c-5" target="FdNmokenJ6ZyeSQpQu_c-7" edge="1">
          <mxGeometry relative="1" as="geometry" />
        </mxCell>
        <mxCell id="FdNmokenJ6ZyeSQpQu_c-11" style="edgeStyle=orthogonalEdgeStyle;rounded=0;orthogonalLoop=1;jettySize=auto;html=1;exitX=0;exitY=0.5;exitDx=0;exitDy=0;entryX=0.143;entryY=0.533;entryDx=0;entryDy=0;entryPerimeter=0;" parent="1" source="FdNmokenJ6ZyeSQpQu_c-5" target="76dPMs_euqt4tA6rNILW-21" edge="1">
          <mxGeometry relative="1" as="geometry">
            <Array as="points">
              <mxPoint x="140" y="827" />
              <mxPoint x="140" y="946" />
              <mxPoint x="139" y="946" />
            </Array>
          </mxGeometry>
        </mxCell>
        <mxCell id="FdNmokenJ6ZyeSQpQu_c-5" value="" style="rhombus;whiteSpace=wrap;html=1;fillColor=#ffffc0;strokeColor=#ff0000;fontColor=#000000;rounded=1;arcSize=40;" parent="1" vertex="1">
          <mxGeometry x="241" y="802" width="50.37" height="50" as="geometry" />
        </mxCell>
        <mxCell id="76dPMs_euqt4tA6rNILW-2" style="edgeStyle=orthogonalEdgeStyle;rounded=0;orthogonalLoop=1;jettySize=auto;html=1;exitX=0.5;exitY=1;exitDx=0;exitDy=0;entryX=0.5;entryY=0;entryDx=0;entryDy=0;" parent="1" source="FxTnGhZAJDzoU8HkoEIE-1" target="76dPMs_euqt4tA6rNILW-4" edge="1">
          <mxGeometry relative="1" as="geometry">
            <mxPoint x="414" y="589" as="targetPoint" />
          </mxGeometry>
        </mxCell>
      </root>
    </mxGraphModel>
  </diagram>
  <diagram id="eNAPRW05tkoRUtyAP-BO" name="Check out">
    <mxGraphModel dx="446" dy="563" grid="1" gridSize="10" guides="1" tooltips="1" connect="1" arrows="1" fold="1" page="1" pageScale="1" pageWidth="827" pageHeight="1169" math="0" shadow="0">
      <root>
        <mxCell id="0" />
        <mxCell id="1" parent="0" />
        <mxCell id="JN3NWGgr6LUrE1URZuIs-1" value="Check out" style="swimlane;whiteSpace=wrap;html=1;" parent="1" vertex="1">
          <mxGeometry x="19" y="19" width="790" height="1130" as="geometry">
            <mxRectangle x="10" width="160" height="30" as="alternateBounds" />
          </mxGeometry>
        </mxCell>
        <mxCell id="JN3NWGgr6LUrE1URZuIs-24" value="" style="shape=line;html=1;strokeWidth=6;strokeColor=#ff0000;" parent="JN3NWGgr6LUrE1URZuIs-1" vertex="1">
          <mxGeometry x="10" y="1021" width="770" height="29" as="geometry" />
        </mxCell>
        <mxCell id="276L2MqzZwGgxkxCXu3R-1" value="" style="ellipse;html=1;shape=startState;fillColor=#000000;strokeColor=#ff0000;" parent="JN3NWGgr6LUrE1URZuIs-1" vertex="1">
          <mxGeometry x="380" y="81" width="30" height="30" as="geometry" />
        </mxCell>
        <mxCell id="276L2MqzZwGgxkxCXu3R-2" value="" style="edgeStyle=orthogonalEdgeStyle;html=1;verticalAlign=bottom;endArrow=open;endSize=8;strokeColor=#ff0000;rounded=0;" parent="JN3NWGgr6LUrE1URZuIs-1" source="276L2MqzZwGgxkxCXu3R-1" edge="1">
          <mxGeometry relative="1" as="geometry">
            <mxPoint x="395" y="171" as="targetPoint" />
          </mxGeometry>
        </mxCell>
        <mxCell id="_7sJKi1h1BgKVhU6HM-U-2" value="" style="edgeStyle=orthogonalEdgeStyle;rounded=0;orthogonalLoop=1;jettySize=auto;html=1;" parent="JN3NWGgr6LUrE1URZuIs-1" source="Mh21gyYiUaSMg5BcvZPK-1" target="_7sJKi1h1BgKVhU6HM-U-1" edge="1">
          <mxGeometry relative="1" as="geometry" />
        </mxCell>
        <mxCell id="Mh21gyYiUaSMg5BcvZPK-1" value="show message&lt;br&gt;&quot;1. Check out&lt;br&gt;0.Back to Main Menu&quot;" style="rounded=1;whiteSpace=wrap;html=1;arcSize=40;fontColor=#000000;fillColor=#ffffc0;strokeColor=#ff0000;" parent="JN3NWGgr6LUrE1URZuIs-1" vertex="1">
          <mxGeometry x="321" y="171" width="147" height="52.5" as="geometry" />
        </mxCell>
        <mxCell id="_7sJKi1h1BgKVhU6HM-U-4" value="" style="edgeStyle=orthogonalEdgeStyle;rounded=0;orthogonalLoop=1;jettySize=auto;html=1;entryX=0.5;entryY=0;entryDx=0;entryDy=0;" parent="JN3NWGgr6LUrE1URZuIs-1" source="_7sJKi1h1BgKVhU6HM-U-1" target="OBXgt1G-N1sXjgLMGG4F-1" edge="1">
          <mxGeometry relative="1" as="geometry">
            <mxPoint x="394.5" y="422.25" as="targetPoint" />
          </mxGeometry>
        </mxCell>
        <mxCell id="_7sJKi1h1BgKVhU6HM-U-1" value="input choice" style="rounded=1;whiteSpace=wrap;html=1;arcSize=40;fontColor=#000000;fillColor=#ffffc0;strokeColor=#ff0000;" parent="JN3NWGgr6LUrE1URZuIs-1" vertex="1">
          <mxGeometry x="321" y="303.5" width="147" height="52.5" as="geometry" />
        </mxCell>
        <mxCell id="OBXgt1G-N1sXjgLMGG4F-2" style="edgeStyle=orthogonalEdgeStyle;rounded=0;orthogonalLoop=1;jettySize=auto;html=1;exitX=0;exitY=0.5;exitDx=0;exitDy=0;entryX=0;entryY=0.5;entryDx=0;entryDy=0;" parent="JN3NWGgr6LUrE1URZuIs-1" source="OBXgt1G-N1sXjgLMGG4F-1" target="_7sJKi1h1BgKVhU6HM-U-1" edge="1">
          <mxGeometry relative="1" as="geometry">
            <Array as="points">
              <mxPoint x="221" y="456" />
              <mxPoint x="221" y="330" />
            </Array>
          </mxGeometry>
        </mxCell>
        <mxCell id="gKpwF33iVSnU6J4L7Hd_-2" style="edgeStyle=orthogonalEdgeStyle;rounded=0;orthogonalLoop=1;jettySize=auto;html=1;exitX=1;exitY=0.5;exitDx=0;exitDy=0;entryX=0.845;entryY=0.437;entryDx=0;entryDy=0;entryPerimeter=0;" parent="JN3NWGgr6LUrE1URZuIs-1" source="OBXgt1G-N1sXjgLMGG4F-1" target="JN3NWGgr6LUrE1URZuIs-24" edge="1">
          <mxGeometry relative="1" as="geometry">
            <mxPoint x="661" y="1031" as="targetPoint" />
          </mxGeometry>
        </mxCell>
        <mxCell id="gKpwF33iVSnU6J4L7Hd_-5" value="" style="edgeStyle=orthogonalEdgeStyle;rounded=0;orthogonalLoop=1;jettySize=auto;html=1;" parent="JN3NWGgr6LUrE1URZuIs-1" source="OBXgt1G-N1sXjgLMGG4F-1" target="gKpwF33iVSnU6J4L7Hd_-4" edge="1">
          <mxGeometry relative="1" as="geometry" />
        </mxCell>
        <mxCell id="OBXgt1G-N1sXjgLMGG4F-1" value="" style="rhombus;whiteSpace=wrap;html=1;fillColor=#ffffc0;strokeColor=#ff0000;fontColor=#000000;rounded=1;arcSize=40;" parent="JN3NWGgr6LUrE1URZuIs-1" vertex="1">
          <mxGeometry x="369" y="431" width="50.37" height="50" as="geometry" />
        </mxCell>
        <mxCell id="gKpwF33iVSnU6J4L7Hd_-1" value="[invalid choice]" style="text;html=1;strokeColor=none;fillColor=none;align=center;verticalAlign=middle;whiteSpace=wrap;rounded=0;" parent="JN3NWGgr6LUrE1URZuIs-1" vertex="1">
          <mxGeometry x="251" y="431" width="110" height="30" as="geometry" />
        </mxCell>
        <mxCell id="gKpwF33iVSnU6J4L7Hd_-8" value="" style="edgeStyle=orthogonalEdgeStyle;rounded=0;orthogonalLoop=1;jettySize=auto;html=1;" parent="JN3NWGgr6LUrE1URZuIs-1" source="gKpwF33iVSnU6J4L7Hd_-4" target="gKpwF33iVSnU6J4L7Hd_-7" edge="1">
          <mxGeometry relative="1" as="geometry" />
        </mxCell>
        <mxCell id="gKpwF33iVSnU6J4L7Hd_-4" value="show total amount in the safe" style="whiteSpace=wrap;html=1;fillColor=#ffffc0;strokeColor=#ff0000;fontColor=#000000;rounded=1;arcSize=40;" parent="JN3NWGgr6LUrE1URZuIs-1" vertex="1">
          <mxGeometry x="334.185" y="556" width="120" height="60" as="geometry" />
        </mxCell>
        <mxCell id="gKpwF33iVSnU6J4L7Hd_-9" style="edgeStyle=orthogonalEdgeStyle;rounded=0;orthogonalLoop=1;jettySize=auto;html=1;exitX=0.5;exitY=1;exitDx=0;exitDy=0;entryX=0.498;entryY=0.402;entryDx=0;entryDy=0;entryPerimeter=0;" parent="JN3NWGgr6LUrE1URZuIs-1" source="gKpwF33iVSnU6J4L7Hd_-7" target="JN3NWGgr6LUrE1URZuIs-24" edge="1">
          <mxGeometry relative="1" as="geometry" />
        </mxCell>
        <mxCell id="gKpwF33iVSnU6J4L7Hd_-7" value="back to login menu" style="whiteSpace=wrap;html=1;fillColor=#ffffc0;strokeColor=#ff0000;fontColor=#000000;rounded=1;arcSize=40;" parent="JN3NWGgr6LUrE1URZuIs-1" vertex="1">
          <mxGeometry x="334.185" y="696" width="120" height="60" as="geometry" />
        </mxCell>
        <mxCell id="gKpwF33iVSnU6J4L7Hd_-3" value="[0]" style="text;html=1;strokeColor=none;fillColor=none;align=center;verticalAlign=middle;whiteSpace=wrap;rounded=0;" parent="1" vertex="1">
          <mxGeometry x="434" y="452" width="110" height="30" as="geometry" />
        </mxCell>
        <mxCell id="gKpwF33iVSnU6J4L7Hd_-6" value="[1]" style="text;html=1;strokeColor=none;fillColor=none;align=center;verticalAlign=middle;whiteSpace=wrap;rounded=0;" parent="1" vertex="1">
          <mxGeometry x="377" y="495" width="110" height="30" as="geometry" />
        </mxCell>
        <mxCell id="Sjdc327A1h3u5hueM7JI-1" value="" style="ellipse;html=1;shape=endState;fillColor=#000000;strokeColor=#ff0000;" parent="1" vertex="1">
          <mxGeometry x="398.18" y="1090" width="30" height="30" as="geometry" />
        </mxCell>
        <mxCell id="Sjdc327A1h3u5hueM7JI-2" style="edgeStyle=orthogonalEdgeStyle;rounded=0;orthogonalLoop=1;jettySize=auto;html=1;exitX=0.499;exitY=0.457;exitDx=0;exitDy=0;exitPerimeter=0;entryX=0.5;entryY=0;entryDx=0;entryDy=0;fillColor=#e51400;strokeColor=#B20000;" parent="1" target="Sjdc327A1h3u5hueM7JI-1" edge="1">
          <mxGeometry relative="1" as="geometry">
            <mxPoint x="413" y="1053" as="sourcePoint" />
          </mxGeometry>
        </mxCell>
      </root>
    </mxGraphModel>
  </diagram>
</mxfile>
